<svg width="300" height="301" viewBox="0 0 300 301" fill="none" xmlns="http://www.w3.org/2000/svg">
<path d="M21.8744 121.763C21.8744 119.789 23.4754 118.188 25.4503 118.188H274.225C276.2 118.188 277.801 119.789 277.801 121.764V288.632H21.8744V121.763Z" fill="white"/>
<path d="M21.8744 288.632H277.801H297.381C297.875 288.632 298.275 289.032 298.275 289.526V295.862C298.275 297.837 296.674 299.438 294.699 299.438H4.97617C3.00126 299.438 1.40027 297.837 1.40027 295.862V289.526C1.40027 289.032 1.80051 288.632 2.29424 288.632H21.8744Z" fill="white"/>
<path d="M277.801 288.632V121.764C277.801 119.789 276.2 118.188 274.225 118.188H25.4503C23.4754 118.188 21.8744 119.789 21.8744 121.763V288.632M277.801 288.632H21.8744M277.801 288.632H297.381C297.875 288.632 298.275 289.032 298.275 289.526V295.862C298.275 297.837 296.674 299.438 294.699 299.438H4.97617C3.00126 299.438 1.40027 297.837 1.40027 295.862V289.526C1.40027 289.032 1.80051 288.632 2.29424 288.632H21.8744" stroke="#333333" stroke-width="1.78794"/>
<path d="M34.3752 130.913C34.3752 129.926 35.1757 129.125 36.1631 129.125H263.837C264.825 129.125 265.625 129.926 265.625 130.913V288.5H34.3752V130.913Z" fill="#1355FF"/>
<rect x="43.7502" y="157.251" width="212.5" height="106.25" rx="3.57589" fill="white"/>
<path d="M173.261 257.251H123.613C121.79 257.251 120.312 255.773 120.312 253.95V191.866L130.408 182.251H173.261C175.084 182.251 176.562 183.729 176.562 185.552V253.95C176.562 255.773 175.084 257.251 173.261 257.251Z" fill="white"/>
<path d="M120.312 191.866H128.62C129.608 191.866 130.408 191.066 130.408 190.079V182.251M120.312 191.866V253.95C120.312 255.773 121.79 257.251 123.613 257.251H173.261C175.084 257.251 176.562 255.773 176.562 253.95V185.552C176.562 183.729 175.084 182.251 173.261 182.251H130.408M120.312 191.866L130.408 182.251" stroke="#333333" stroke-width="1.78794"/>
<path d="M21.8745 288.633H277.801H297.381C297.875 288.633 298.275 289.033 298.275 289.527V295.862C298.275 297.837 296.674 299.438 294.699 299.438H4.97626C3.00135 299.438 1.40036 297.837 1.40036 295.862V289.527C1.40036 289.033 1.8006 288.633 2.29433 288.633H21.8745Z" fill="white" stroke="#333333" stroke-width="1.78794"/>
<path d="M277.801 288.632V121.764C277.801 119.789 276.2 118.188 274.225 118.188H25.4502C23.4753 118.188 21.8743 119.789 21.8743 121.763V288.632M277.801 288.632H21.8743M277.801 288.632H297.381C297.875 288.632 298.275 289.032 298.275 289.526V295.862C298.275 297.837 296.674 299.438 294.699 299.438H4.97605C3.00114 299.438 1.40015 297.837 1.40015 295.862V289.526C1.40015 289.032 1.80039 288.632 2.29412 288.632H21.8743" stroke="#333333" stroke-width="1.78794"/>
<path d="M14.8142 288.501C13.5363 288.501 12.5004 287.465 12.5004 286.187V277.043H56.9856V286.187C56.9856 287.465 55.9497 288.501 54.6718 288.501H14.8142Z" fill="white"/>
<path d="M12.5004 277.043V265.584H56.9856V277.043H12.5004Z" fill="white"/>
<path d="M12.5004 265.584V254.126H56.9856V265.584H12.5004Z" fill="white"/>
<path d="M12.5004 254.126V242.668H56.9856V254.126H12.5004Z" fill="white"/>
<path d="M12.5004 242.668V231.209H56.9856V242.668H12.5004Z" fill="white"/>
<path d="M12.5004 231.209V222.065C12.5004 220.787 13.5363 219.751 14.8142 219.751H54.6718C55.9497 219.751 56.9856 220.787 56.9856 222.065V231.209H12.5004Z" fill="white"/>
<path d="M12.5004 277.043V286.187C12.5004 287.465 13.5363 288.501 14.8142 288.501H54.6718C55.9497 288.501 56.9856 287.465 56.9856 286.187V277.043M12.5004 277.043H56.9856M12.5004 277.043V265.584M56.9856 277.043V265.584M12.5004 265.584H56.9856M12.5004 265.584V254.126M56.9856 265.584V254.126M12.5004 254.126H56.9856M12.5004 254.126V242.668M56.9856 254.126V242.668M12.5004 242.668H56.9856M12.5004 242.668V231.209M56.9856 242.668V231.209M12.5004 231.209H56.9856M12.5004 231.209V222.065C12.5004 220.787 13.5363 219.751 14.8142 219.751H54.6718C55.9497 219.751 56.9856 220.787 56.9856 222.065V231.209" stroke="#333333" stroke-width="1.78794" stroke-linecap="round" stroke-linejoin="round"/>
<path d="M46.064 288.501C44.7861 288.501 43.7502 287.465 43.7502 286.187V277.043H88.2355V286.187C88.2355 287.465 87.1995 288.501 85.9217 288.501H46.064Z" fill="white"/>
<path d="M43.7502 277.043V265.584H88.2355V277.043H43.7502Z" fill="white"/>
<path d="M43.7502 265.584V254.126H88.2355V265.584H43.7502Z" fill="white"/>
<path d="M43.7502 254.126V244.982C43.7502 243.704 44.7861 242.668 46.064 242.668H85.9217C87.1995 242.668 88.2355 243.704 88.2355 244.982V254.126H43.7502Z" fill="white"/>
<path d="M43.7502 277.043V286.187C43.7502 287.465 44.7861 288.501 46.064 288.501H85.9217C87.1995 288.501 88.2355 287.465 88.2355 286.187V277.043M43.7502 277.043H88.2355M43.7502 277.043V265.584M88.2355 277.043V265.584M43.7502 265.584H88.2355M43.7502 265.584V254.126M88.2355 265.584V254.126M43.7502 254.126H88.2355M43.7502 254.126V244.982C43.7502 243.704 44.7861 242.668 46.064 242.668H85.9217C87.1995 242.668 88.2355 243.704 88.2355 244.982V254.126" stroke="#333333" stroke-width="1.78794" stroke-linecap="round" stroke-linejoin="round"/>
<path d="M176.185 230.026L171.909 209.132C171.608 207.661 173.353 206.653 174.477 207.65L190.434 221.799C191.771 222.985 191.553 225.132 190.006 226.025C188.754 226.748 188.325 228.349 189.048 229.601L193.989 238.159C194.852 239.654 194.339 241.565 192.845 242.428C191.35 243.291 189.439 242.779 188.576 241.284L183.635 232.726C182.912 231.474 181.311 231.045 180.059 231.768C178.511 232.661 176.543 231.776 176.185 230.026Z" fill="#1355FF"/>
<path d="M122.537 174.876C122.537 175.37 122.937 175.77 123.431 175.77C123.925 175.77 124.325 175.37 124.325 174.876H122.537ZM124.063 93.1217C123.714 92.7725 123.148 92.7725 122.799 93.1217L117.11 98.8109C116.76 99.16 116.76 99.726 117.11 100.075C117.459 100.424 118.025 100.424 118.374 100.075L123.431 95.0181L128.488 100.075C128.837 100.424 129.403 100.424 129.752 100.075C130.101 99.726 130.101 99.16 129.752 98.8109L124.063 93.1217ZM172.476 174.876C172.476 175.37 172.876 175.77 173.37 175.77C173.863 175.77 174.264 175.37 174.264 174.876H172.476ZM174.002 93.1217C173.653 92.7725 173.087 92.7725 172.738 93.1217L167.048 98.8109C166.699 99.16 166.699 99.726 167.048 100.075C167.397 100.424 167.964 100.424 168.313 100.075L173.37 95.0181L178.427 100.075C178.776 100.424 179.342 100.424 179.691 100.075C180.04 99.726 180.04 99.16 179.691 98.8109L174.002 93.1217ZM124.325 174.876V93.7538H122.537V174.876H124.325ZM174.264 174.876V93.7538H172.476V174.876H174.264Z" fill="#333333"/>
<path d="M149.219 79.125H256.641C265.054 79.125 271.875 72.3043 271.875 63.8906C271.875 55.4769 265.054 48.6562 256.641 48.6562H246.875L249.645 43.9976C256.66 32.1991 249.84 17.0148 236.36 14.4226C228.53 12.9169 220.561 16.2525 216.138 22.8867L210.938 30.6875V26C210.938 12.1929 199.745 1 185.938 1C172.131 1 160.938 12.1929 160.938 26V36.9375H149.219C137.569 36.9375 128.125 46.3815 128.125 58.0312C128.125 69.681 137.569 79.125 149.219 79.125Z" fill="#1355FF" stroke="white" stroke-width="1.78794" stroke-linecap="round" stroke-linejoin="round"/>
<path d="M61.1754 79.1243H149.915C156.866 79.1243 162.5 73.3949 162.5 66.3274C162.5 59.2599 156.866 53.5305 149.915 53.5305H141.848L144.136 49.6172C149.932 39.7065 144.297 26.9517 133.162 24.7742C126.694 23.5094 120.11 26.3114 116.457 31.8841L112.16 38.4368V34.4993C112.16 22.9013 102.914 13.4993 91.5083 13.4993C80.1024 13.4993 70.8561 22.9013 70.8561 34.4993V43.6868H61.1754C51.5517 43.6868 43.7502 51.6197 43.7502 61.4055C43.7502 71.1913 51.5517 79.1243 61.1754 79.1243Z" fill="#1355FF" stroke="white" stroke-width="1.78794" stroke-linecap="round" stroke-linejoin="round"/>
</svg>
