<svg width="300" height="300" viewBox="0 0 300 300" fill="none" xmlns="http://www.w3.org/2000/svg">
<path d="M69 127.254C69 127.254 52.851 79.47 109.179 85.302C165.507 91.134 138.594 69.984 159.879 56.859C181.164 43.734 243.879 84.567 217.641 123.951C191.403 163.335 259.572 127.308 273.792 186.534C282.567 223.083 260.796 249.984 242.835 265.233" stroke="#BCBCBC" stroke-width="3" stroke-miterlimit="10"/>
<path d="M248.328 219.57C244.095 195.057 229.107 173.121 204.756 165.27C198.527 163.273 192.157 161.744 185.7 160.695V160.728C185.363 162.763 184.566 164.694 183.369 166.374C180.831 169.851 177.333 172.707 173.283 174.195C169.149 175.725 164.028 175.923 160.191 173.517C157.881 172.071 155.64 169.524 155.235 166.776C154.773 163.68 156.351 160.749 158.571 158.703C139.755 158.856 122.055 161.952 107.871 165.477C108.363 167.535 109.044 169.544 109.905 171.477C111.111 174.172 112.814 176.615 114.927 178.677C117.562 176.067 119.869 173.145 121.797 169.977C123.642 170.581 125.268 171.713 126.474 173.234C127.68 174.755 128.412 176.596 128.58 178.53V178.629C129.324 185.652 122.562 190.929 116.88 194.175C110.316 197.949 102.999 200.775 95.811 203.124C92.847 204.096 88.995 204.924 85.866 203.91C85.529 203.803 85.2002 203.671 84.882 203.517C81.762 201.987 79.674 198.78 78.045 195.849C73.404 187.524 70.386 178.449 68.34 169.134C54.141 170.949 52.515 161.334 51.672 158.976L39.525 192.933C38.8879 195.374 38.819 197.928 39.3236 200.4C39.8281 202.872 40.8927 205.195 42.4355 207.191C43.9783 209.187 45.9582 210.802 48.2231 211.913C50.4879 213.025 52.9773 213.602 55.5 213.6H105.786L128.628 272.19L135.102 288.819H172.08C169.08 288.819 167.439 288.087 166.248 286.893C165.018 285.662 164.326 283.995 164.322 282.255C164.322 278.655 167.277 275.703 172.08 275.703H172.419C172.056 275.703 171.708 275.67 171.345 275.637C171.57 275.613 171.793 275.576 172.014 275.526C171.776 275.521 171.539 275.502 171.303 275.472C173.469 275.216 175.477 274.207 176.975 272.621C178.472 271.035 179.365 268.973 179.496 266.796C179.502 266.683 179.502 266.57 179.496 266.457V266.283C179.444 264.051 178.591 261.911 177.092 260.256C175.594 258.601 173.549 257.54 171.333 257.268C171.585 257.247 171.825 257.226 172.068 257.226C171.849 257.172 171.606 257.139 171.378 257.106C171.738 257.073 172.101 257.049 172.449 257.049L199.503 257.193L204.48 257.214H210.387C210.66 257.214 210.936 257.214 211.197 257.247L219.972 257.292L225.834 257.325C228.284 257.346 230.626 258.336 232.348 260.078C234.07 261.821 235.032 264.175 235.023 266.625C235.02 268.01 234.699 269.376 234.084 270.618C236.599 270.296 238.932 269.133 240.702 267.318C244.923 263.007 246.741 256.554 247.998 250.818C250.221 240.6 250.089 229.833 248.328 219.57ZM179.976 220.26C174.879 228.105 166.2 227.4 166.2 227.4C166.2 227.4 165.48 228.102 163.8 225.114C162.12 222.126 157.335 220.083 157.335 220.083C156.954 223.083 156.165 227.643 148.335 221.733C140.505 215.823 142.866 207.207 143.535 202.656C144.204 198.105 146.871 196.596 146.871 196.596L150.021 194.934C150.021 194.934 140.91 192.591 140.472 192.504C140.034 192.417 131.919 185.622 140.154 183.828C148.389 182.034 161.226 189.168 163.707 190.578C166.188 191.988 180.687 204.252 180.687 204.252C180.687 204.252 185.1 212.427 179.976 220.26Z" fill="#353642"/>
<path d="M68.328 169.14C68.328 169.14 75.195 168.306 77.766 163.404L75.525 175.977C75.525 175.977 102.843 166.677 107.853 165.477C107.853 165.477 109.467 175.884 115.893 178.677L122.523 170.247C122.523 170.247 130.836 172.347 128.562 183.675C126.288 195.003 94.836 204.471 89.502 204.252C84.168 204.033 78.426 200.751 72.546 183.114L68.328 169.14Z" fill="#353642"/>
<path d="M79.515 141.132C81.255 143.964 83.004 146.79 84.81 149.58C85.923 151.299 87.951 153.75 85.794 155.547C85.0921 156.085 84.2441 156.399 83.361 156.447C81.975 156.57 80.52 156.237 79.677 155.046L75.477 148.086C74.6399 146.698 73.3108 145.676 71.7542 145.223C70.1977 144.771 68.5278 144.921 67.077 145.644V145.644" stroke="#282828" stroke-width="3" stroke-miterlimit="10"/>
<path d="M95.4 150.3C96.498 152.91 95.754 154.593 94.47 155.439C92.37 156.816 89.559 156.156 88.071 154.146L79.53 141.147" stroke="#282828" stroke-width="3" stroke-miterlimit="10"/>
<path d="M86.745 137.352C89.853 141.132 93.774 148.152 95.943 151.083C98.112 154.014 101.466 152.247 101.466 152.247C104.19 150.78 103.728 148.347 102.537 145.392C99.603 138.138 95.415 133.314 90.744 130.152C76.269 120.36 61.419 127.584 57 144.486L39.525 192.933C38.8879 195.374 38.819 197.928 39.3236 200.4C39.8281 202.872 40.8927 205.195 42.4355 207.191C43.9783 209.187 45.9582 210.802 48.2231 211.913C50.4879 213.025 52.9773 213.602 55.5 213.6H105.786L135.111 288.822" stroke="#282828" stroke-width="3" stroke-miterlimit="10"/>
<path d="M104.7 142.065C108.3 140.817 108.135 135.075 103.026 133.137C97.383 130.995 87.363 127.965 84.846 127.209C84.8304 127.197 84.8117 127.19 84.792 127.188C84.615 127.134 84.492 127.089 84.396 127.068L84.255 127.023" stroke="#282828" stroke-width="3" stroke-miterlimit="10"/>
<path d="M157.89 199.476C154.74 195.69 146.118 193.545 140.49 192.507C139.544 192.329 138.682 191.849 138.032 191.139C137.383 190.428 136.982 189.526 136.89 188.568C136.825 187.922 136.899 187.269 137.109 186.654C137.444 185.71 138.087 184.906 138.934 184.37C139.781 183.835 140.783 183.6 141.78 183.702C151.38 184.674 161.28 187.695 168.603 194.202C168.603 194.202 204.102 221.292 208.341 223.929C210.09 224.991 211.722 223.737 210.537 222.069L210.165 221.433C208.078 217.852 205.609 214.508 202.8 211.461" stroke="#282828" stroke-width="4" stroke-miterlimit="10"/>
<path d="M158.547 158.7C113.901 159.072 75.525 175.974 75.525 175.974L79.356 154.5" stroke="#282828" stroke-width="5.47" stroke-miterlimit="10"/>
<path d="M227.889 275.571C227.889 275.571 223.026 274.47 221.733 278.364C220.44 282.258 219.09 288.453 228.387 288.819C237.684 289.185 232.224 287.358 231.687 284.349C231.15 281.34 227.889 275.571 227.889 275.571Z" fill="#353642"/>
<path d="M153.6 204.417C153.6 204.417 148.353 200.439 143.628 204.471C143.429 204.646 143.255 204.848 143.112 205.071" stroke="#282828" stroke-width="5.47" stroke-miterlimit="10"/>
<g opacity="0.77">
<path opacity="0.77" d="M88.053 154.131C89.553 156.144 92.361 156.801 94.452 155.421C95.721 154.581 96.465 152.907 95.394 150.321C95.589 150.606 95.766 150.858 95.94 151.089C98.106 154.032 101.463 152.259 101.463 152.259C104.187 150.792 103.728 148.359 102.537 145.401C101.372 142.471 99.8425 139.7 97.986 137.151C99.201 136.014 100.644 134.865 102.165 135.369C103.806 135.915 104.265 137.973 104.451 139.689C104.538 140.487 104.625 141.276 104.712 142.074L106.026 153.822C106.464 157.722 106.902 161.679 107.853 165.486C108.345 167.544 109.025 169.553 109.887 171.486C111.093 174.181 112.796 176.624 114.909 178.686C117.544 176.076 119.851 173.154 121.779 169.986C123.624 170.59 125.25 171.722 126.456 173.243C127.662 174.764 128.394 176.605 128.562 178.539V178.638C129.306 185.661 122.544 190.938 116.862 194.184C110.298 197.958 102.981 200.784 95.793 203.133C92.829 204.105 88.977 204.933 85.848 203.919C85.511 203.812 85.1822 203.68 84.864 203.526C81.744 201.996 79.656 198.789 78.027 195.858C70.227 181.833 66.987 165.729 65.28 149.781C68.694 149.31 72.096 148.785 75.456 148.062C75.456 148.062 75.456 148.086 75.477 148.095L79.35 154.518L79.668 155.052C80.508 156.252 81.963 156.573 83.352 156.453C84.2351 156.409 85.0835 156.095 85.782 155.553C87.936 153.753 85.914 151.311 84.798 149.592" fill="white"/>
<path opacity="0.77" d="M88.053 154.131C89.553 156.144 92.361 156.801 94.452 155.421C95.721 154.581 96.465 152.907 95.394 150.321C95.589 150.606 95.766 150.858 95.94 151.089C98.106 154.032 101.463 152.259 101.463 152.259C104.187 150.792 103.728 148.359 102.537 145.401C101.372 142.471 99.8425 139.7 97.986 137.151C99.201 136.014 100.644 134.865 102.165 135.369C103.806 135.915 104.265 137.973 104.451 139.689C104.538 140.487 104.625 141.276 104.712 142.074L106.026 153.822C106.464 157.722 106.902 161.679 107.853 165.486C108.345 167.544 109.025 169.553 109.887 171.486C111.093 174.181 112.796 176.624 114.909 178.686C117.544 176.076 119.851 173.154 121.779 169.986C123.624 170.59 125.25 171.722 126.456 173.243C127.662 174.764 128.394 176.605 128.562 178.539V178.638C129.306 185.661 122.544 190.938 116.862 194.184C110.298 197.958 102.981 200.784 95.793 203.133C92.829 204.105 88.977 204.933 85.848 203.919C85.511 203.812 85.1822 203.68 84.864 203.526C81.744 201.996 79.656 198.789 78.027 195.858C70.227 181.833 66.987 165.729 65.28 149.781C68.694 149.31 72.096 148.785 75.456 148.062C75.456 148.062 75.456 148.086 75.477 148.095L79.35 154.518L79.668 155.052C80.508 156.252 81.963 156.573 83.352 156.453C84.2351 156.409 85.0835 156.095 85.782 155.553C87.936 153.753 85.914 151.311 84.798 149.592" fill="#1355FF"/>
<path opacity="0.77" d="M88.974 155.082C90.303 156.882 92.574 156.654 94.452 155.421C95.586 154.671 96.516 154.89 95.559 152.577C95.736 152.829 95.76 151.977 95.916 152.166C97.851 154.794 95.94 151.08 95.94 151.08C98.64 154.491 104.517 151.278 103.44 148.641C102.3 145.8 101.1 141.6 99.579 139.5C100.779 138.366 100.548 138.534 102.075 139.437C102.485 139.701 102.829 140.056 103.078 140.475C103.327 140.894 103.476 141.366 103.512 141.852C103.635 142.995 103.758 144.09 103.881 145.206L105.051 155.706C105.444 159.195 105.834 162.72 106.683 166.116C107.122 167.952 107.731 169.744 108.501 171.468C109.575 173.841 113.025 177.792 114.909 179.601C117.252 177.276 120.06 173.001 121.779 170.16C125.079 171.174 124.935 174.33 125.169 177.777V177.867C125.835 184.134 119.799 188.841 114.741 191.742C108.879 195.111 102.348 197.631 95.931 199.731C93.285 200.601 89.847 201.351 87.054 200.433C86.7527 200.338 86.4589 200.221 86.175 200.082C83.391 198.714 81.525 195.855 80.07 193.236C73.701 181.797 70.746 168.81 69.12 155.79C69.0007 154.816 69.2644 153.833 69.8554 153.05C70.4464 152.266 71.3186 151.743 72.288 151.59C74.115 151.29 75.936 150.99 77.745 150.588L77.796 150.612L81.252 156.345C82.005 157.41 82.128 156.576 83.367 156.468C84.15 156.399 85.668 156.246 86.274 155.739C88.197 154.137 87.111 153.474 86.115 151.941" fill="#1355FF"/>
</g>
<path d="M152.967 210.207C152.967 210.207 143.004 206.931 142.854 212.439" stroke="#282828" stroke-width="5.47" stroke-miterlimit="10"/>
<path opacity="0.54" d="M63.786 266.316L44.247 216.258C44.0049 215.289 43.9868 214.278 44.194 213.301C44.4012 212.325 44.8284 211.408 45.4429 210.621C46.0575 209.834 46.8433 209.198 47.7407 208.76C48.6382 208.322 49.6235 208.095 50.622 208.095H128.232C129.975 208.095 131.667 208.681 133.036 209.76C134.404 210.838 135.37 212.346 135.777 214.041L157.167 264.087C157.398 265.052 157.408 266.058 157.195 267.027C156.981 267.997 156.551 268.905 155.937 269.685C155.322 270.465 154.539 271.095 153.646 271.528C152.752 271.961 151.773 272.187 150.78 272.187H71.313C69.5834 272.188 67.903 271.611 66.5392 270.547C65.1753 269.483 64.2062 267.994 63.786 266.316Z" fill="white"/>
<path d="M156.21 218.652C156.21 218.652 157.827 220.134 157.212 222.252C156.756 223.821 155.196 224.811 153.651 224.274C148.731 222.573 144.3 219.684 143.22 214.773C142.71 212.286 142.599 209.734 142.893 207.213C143.13 204.876 143.475 202.353 144.261 200.13C145.461 196.716 149.136 194.337 152.703 195.981" stroke="#282828" stroke-width="5.47" stroke-miterlimit="10"/>
<path d="M63.786 266.316L44.247 216.258C44.0049 215.289 43.9868 214.278 44.194 213.301C44.4012 212.325 44.8284 211.408 45.4429 210.621C46.0575 209.834 46.8433 209.198 47.7407 208.76C48.6382 208.322 49.6235 208.095 50.622 208.095H128.232C129.975 208.095 131.667 208.681 133.036 209.76C134.404 210.838 135.37 212.346 135.777 214.041L157.167 264.087C157.398 265.052 157.408 266.058 157.195 267.027C156.981 267.997 156.551 268.905 155.937 269.685C155.322 270.465 154.539 271.095 153.646 271.528C152.752 271.961 151.773 272.187 150.78 272.187H71.313C69.5834 272.188 67.903 271.611 66.5392 270.547C65.1753 269.483 64.2062 267.994 63.786 266.316Z" fill="#1355FF"/>
<path d="M63.786 266.316L44.247 216.258C44.0049 215.289 43.9868 214.278 44.194 213.301C44.4012 212.325 44.8284 211.408 45.4429 210.621C46.0575 209.834 46.8433 209.198 47.7407 208.76C48.6382 208.322 49.6235 208.095 50.622 208.095H128.232C129.975 208.095 131.667 208.681 133.036 209.76C134.404 210.838 135.37 212.346 135.777 214.041L157.167 264.087C157.398 265.052 157.408 266.058 157.195 267.027C156.981 267.997 156.551 268.905 155.937 269.685C155.322 270.465 154.539 271.095 153.646 271.528C152.752 271.961 151.773 272.187 150.78 272.187H71.313C69.5834 272.188 67.903 271.611 66.5392 270.547C65.1753 269.483 64.2062 267.994 63.786 266.316Z" stroke="#282828" stroke-width="4" stroke-linecap="square" stroke-linejoin="round"/>
<path d="M66.645 264.3L48.618 218.1C48.3952 217.206 48.3788 216.274 48.5703 215.373C48.7618 214.472 49.1561 213.626 49.7231 212.9C50.2902 212.174 51.0152 211.587 51.8431 211.184C52.6709 210.78 53.5799 210.57 54.501 210.57H126.099C127.707 210.569 129.267 211.11 130.53 212.105C131.793 213.1 132.684 214.491 133.059 216.054L152.796 262.227C153.009 263.118 153.017 264.045 152.821 264.94C152.624 265.835 152.227 266.673 151.659 267.392C151.092 268.111 150.369 268.692 149.545 269.092C148.721 269.492 147.817 269.7 146.901 269.7H73.587C71.9939 269.701 70.4459 269.171 69.1884 268.193C67.9309 267.214 67.0358 265.844 66.645 264.3Z" fill="#1355FF"/>
<path d="M219.876 257.052L233.604 288.819" stroke="#282828" stroke-width="5.47" stroke-miterlimit="10"/>
<path d="M285 288.819H15" stroke="#282828" stroke-width="4" stroke-miterlimit="10"/>
<path d="M157.311 145.443C155.085 147.642 151.761 147.639 149.868 145.605" stroke="#282828" stroke-width="3" stroke-miterlimit="10"/>
<path d="M97.986 137.142C99.201 136.005 100.644 134.856 102.165 135.36C103.806 135.906 104.265 137.964 104.451 139.68C104.977 144.396 105.502 149.107 106.026 153.813C106.692 159.813 107.394 165.957 109.887 171.471C111.093 174.166 112.796 176.609 114.909 178.671" stroke="#282828" stroke-width="3" stroke-miterlimit="10"/>
<path d="M128.562 178.635V178.536C128.394 176.602 127.662 174.761 126.456 173.24C125.25 171.719 123.624 170.587 121.779 169.983C119.851 173.151 117.544 176.073 114.909 178.683C108.001 185.552 99.1267 190.101 89.517 191.7C89.979 193.539 90.93 195.213 91.587 196.983C92.244 198.753 92.571 200.802 91.773 202.509C90.765 204.687 87.873 204.402 85.863 203.919C85.842 203.919 85.83 203.919 85.809 203.919" stroke="#282828" stroke-width="3" stroke-miterlimit="10"/>
<path d="M75.462 148.059C72.102 148.782 68.7 149.307 65.286 149.778C66.993 165.726 70.221 181.83 78.033 195.855C79.662 198.786 81.75 201.993 84.87 203.523C85.1882 203.677 85.517 203.809 85.854 203.916C88.983 204.945 92.835 204.102 95.799 203.13C102.999 200.778 110.304 197.955 116.868 194.181C122.535 190.932 129.297 185.658 128.568 178.635C128.497 177.862 128.339 177.099 128.097 176.361" stroke="#282828" stroke-width="3" stroke-miterlimit="10"/>
<path d="M131.646 116.247C132.149 118.346 133.299 120.235 134.932 121.646C136.566 123.057 138.601 123.92 140.751 124.113C140.929 123.247 141.317 122.437 141.879 121.755C144.279 118.926 145.302 124.233 152.979 120.423C163.617 115.131 167.655 118.167 167.655 118.167C168.009 118.431 167.955 120.867 168.015 121.311C168.315 123.84 168.585 126.357 168.882 128.883C169.062 130.425 169.239 131.955 169.407 133.485C169.552 133.225 169.712 132.973 169.887 132.732C170.856 129.303 172.587 125.253 176.319 126.996C177.075 127.364 177.732 127.906 178.239 128.577C180.714 131.829 178.839 134.97 176.25 137.295C175.601 138.016 174.876 138.665 174.087 139.23C174.513 140.112 176.253 143.613 176.253 143.625C176.433 143.979 182.514 137.097 182.967 136.347C183.644 134.51 184.007 132.572 184.041 130.614C184.14 122.565 180.864 113.196 174.345 108.579C172.728 107.436 173.244 106.335 173.145 104.781C173.138 104.697 173.106 104.617 173.053 104.552C172.999 104.486 172.928 104.439 172.847 104.415C172.766 104.391 172.68 104.393 172.6 104.419C172.519 104.445 172.449 104.495 172.398 104.562C170.355 106.914 165.297 106.68 165.297 106.68C147.741 102.282 141.84 110.088 138.297 111.48C136.851 112.028 135.26 112.054 133.797 111.555C133.711 112.039 133.494 112.491 133.17 112.861C132.846 113.231 132.427 113.506 131.958 113.655L132.048 114.468C132.124 115.09 131.982 115.719 131.646 116.247Z" fill="#1355FF"/>
<path d="M140.763 124.125C138.613 123.932 136.578 123.069 134.944 121.658C133.311 120.247 132.161 118.358 131.658 116.259V116.259C131.461 115.454 131.337 114.632 131.286 113.805L131.424 113.79C131.613 113.776 131.799 113.736 131.976 113.67C132.445 113.521 132.864 113.246 133.188 112.876C133.512 112.506 133.729 112.054 133.815 111.57C133.87 111.302 133.881 111.026 133.848 110.754L133.398 106.782C133.398 106.782 136.572 109.143 140.094 107.763C143.616 106.383 149.529 98.577 167.094 102.963C167.094 102.963 171.06 103.197 173.094 100.845C173.145 100.778 173.215 100.728 173.296 100.702C173.376 100.676 173.462 100.674 173.543 100.698C173.624 100.722 173.695 100.769 173.749 100.835C173.802 100.9 173.834 100.98 173.841 101.064C173.946 102.621 174.522 103.722 176.142 104.862C182.661 109.482 185.937 118.848 185.835 126.897C185.805 130.236 184.695 133.533 182.982 136.362C182.529 137.112 176.448 143.994 176.268 143.64C176.268 143.64 174.528 140.127 174.102 139.245L174 139.05L174.195 138.921C174.919 138.429 175.611 137.891 176.265 137.31C178.851 134.985 180.729 131.844 178.254 128.592C177.747 127.921 177.09 127.379 176.334 127.011C172.59 125.268 170.871 129.318 169.902 132.747C169.714 133.402 169.598 134.076 169.557 134.757C169.512 134.337 169.467 133.932 169.422 133.512C169.254 131.982 169.077 130.452 168.897 128.91C168.597 126.384 168.315 123.867 168.03 121.338C167.985 120.906 168.03 118.458 167.67 118.194C167.67 118.194 163.629 115.158 152.994 120.45C145.317 124.26 144.294 118.95 141.894 121.782C141.332 122.464 140.945 123.274 140.766 124.14C140.711 124.418 140.676 124.7 140.661 124.983C140.655 125.02 140.655 125.057 140.661 125.094C140.625 125.715 140.613 126.333 140.598 126.939C140.541 132.786 141.183 138.894 143.478 144.324C146.268 150.906 153.651 157.398 161.328 154.329C163.728 153.366 165.879 151.815 167.847 150.168" stroke="#282828" stroke-width="3" stroke-miterlimit="10"/>
<path d="M146.017 138.385C146.78 138.13 147.149 137.174 146.84 136.25C146.53 135.326 145.661 134.784 144.897 135.04C144.134 135.295 143.765 136.251 144.074 137.175C144.383 138.099 145.253 138.641 146.017 138.385Z" fill="#282828"/>
<path d="M157.439 138.02C158.203 137.765 158.571 136.809 158.262 135.885C157.953 134.961 157.083 134.419 156.32 134.675C155.556 134.93 155.188 135.886 155.497 136.81C155.806 137.734 156.676 138.276 157.439 138.02Z" fill="#282828"/>
<path d="M153.072 139.998C153.072 139.998 149.271 142.155 149.04 139.917C148.968 139.227 148.038 132.468 148.038 132.468C148.038 132.468 144.966 129.213 140.259 131.619" stroke="#282828" stroke-width="3" stroke-miterlimit="10"/>
<path d="M152.217 130.575C152.217 130.575 158.355 127.509 162.417 131.928" stroke="#282828" stroke-width="3" stroke-miterlimit="10"/>
<path d="M157.845 155.082L158.55 158.7C156.327 160.749 154.755 163.686 155.214 166.779C155.622 169.521 157.866 172.074 160.167 173.511C164.013 175.911 169.128 175.722 173.268 174.195C177.315 172.695 180.816 169.848 183.354 166.374C184.549 164.695 185.345 162.765 185.682 160.731V160.695" stroke="#282828" stroke-width="5.47" stroke-miterlimit="10"/>
<path d="M158.55 158.7L159.924 165.234" stroke="#282828" stroke-width="5.47" stroke-miterlimit="10"/>
<path d="M177.981 142.065L180.057 155.85C180.262 157.199 180.944 158.431 181.979 159.32C183.015 160.209 184.335 160.697 185.7 160.695V160.695C192.161 161.742 198.535 163.27 204.768 165.267C229.119 173.121 244.107 195.057 248.34 219.567C250.101 229.83 250.233 240.594 248.022 250.8C246.765 256.545 244.947 262.998 240.726 267.3C235.245 272.91 226.833 270.6 220.356 268.065C200.247 260.244 183.522 246.33 169.08 230.4C161.358 221.88 151.38 215.052 151.38 215.052" stroke="#282828" stroke-width="3" stroke-miterlimit="10"/>
<path d="M73.29 253.959C71.034 253.938 69.069 252.117 68.562 249.582C67.56 244.596 67.296 236.886 74.607 235.203C83.742 233.103 90.768 243.051 94.212 249.339C95.37 251.439 94.059 254.139 91.902 254.139L73.29 253.959Z" fill="#BCBCBC"/>
<path d="M76.3058 230.97C78.2452 229.679 78.275 226.315 76.3723 223.456C74.4696 220.596 71.3549 219.324 69.4155 220.615C67.4761 221.905 67.4463 225.269 69.349 228.129C71.2517 230.988 74.3664 232.26 76.3058 230.97Z" fill="#BCBCBC"/>
<path d="M226.431 275.736C226.29 275.757 226.131 275.778 225.993 275.811H225.939L204.6 275.7L172.581 275.535C172.458 275.535 172.338 275.535 172.218 275.535C171.98 275.529 171.743 275.511 171.507 275.481C173.676 275.229 175.687 274.22 177.186 272.631C178.685 271.043 179.575 268.976 179.7 266.796C179.706 266.683 179.706 266.57 179.7 266.457V266.283C179.691 264.15 178.948 262.084 177.595 260.435C176.242 258.785 174.362 257.652 172.272 257.226C172.053 257.172 171.813 257.139 171.582 257.106C171.945 257.073 172.305 257.049 172.656 257.049L199.707 257.193L204.687 257.214L211.404 257.247C213.704 257.457 215.843 258.517 217.402 260.22C218.962 261.924 219.83 264.148 219.837 266.457C219.837 266.893 219.804 267.328 219.738 267.759C219.418 269.958 218.32 271.968 216.643 273.426C214.966 274.883 212.822 275.69 210.6 275.7H226.854C225.918 275.7 226.179 275.7 226.431 275.736Z" fill="white"/>
<path d="M183.147 286.893C183.757 287.506 184.482 287.992 185.28 288.323C186.079 288.653 186.936 288.822 187.8 288.819H172.086C169.086 288.819 167.448 288.087 166.254 286.893C165.027 285.661 164.336 283.994 164.331 282.255C164.331 278.655 167.283 275.703 172.086 275.703H187.8C186.503 275.701 185.234 276.084 184.155 276.804C183.075 277.524 182.234 278.548 181.737 279.746C181.24 280.945 181.111 282.264 181.364 283.536C181.618 284.808 182.244 285.977 183.162 286.893H183.147Z" fill="#BCBCBC"/>
<path d="M235.044 266.622C235.04 268.008 234.718 269.374 234.102 270.615C233.662 271.553 233.059 272.406 232.32 273.132C231.102 274.339 229.572 275.184 227.901 275.571C227.212 275.73 226.508 275.811 225.801 275.811C225.945 275.778 226.101 275.757 226.239 275.736C225.987 275.712 225.726 275.703 226.665 275.703H210.408C212.631 275.694 214.777 274.888 216.456 273.43C218.134 271.972 219.233 269.959 219.552 267.759C219.618 267.328 219.651 266.893 219.651 266.457C219.644 264.147 218.776 261.923 217.215 260.22C215.655 258.516 213.515 257.456 211.215 257.247L219.99 257.292L225.852 257.325C228.302 257.346 230.644 258.335 232.366 260.077C234.088 261.819 235.051 264.172 235.044 266.622Z" fill="#1355FF"/>
<path d="M235.044 266.619C235.026 269.07 234.037 271.414 232.294 273.138C230.55 274.861 228.195 275.824 225.744 275.814L172.368 275.538C172.011 275.538 171.654 275.511 171.294 275.475C173.544 275.22 175.622 274.149 177.135 272.464C178.648 270.779 179.49 268.597 179.502 266.333C179.513 264.069 178.694 261.879 177.199 260.178C175.704 258.478 173.637 257.384 171.39 257.106C171.747 257.069 172.105 257.051 172.464 257.052L225.84 257.328C228.291 257.345 230.636 258.332 232.361 260.073C234.086 261.814 235.05 264.168 235.044 266.619Z" stroke="#282828" stroke-width="5.47" stroke-linecap="square" stroke-linejoin="round"/>
<path d="M219.645 266.454C219.64 268.905 218.665 271.254 216.932 272.987C215.199 274.72 212.85 275.695 210.399 275.7H172.422C172.063 275.698 171.705 275.678 171.348 275.64C173.596 275.373 175.669 274.291 177.172 272.598C178.676 270.905 179.507 268.72 179.507 266.456C179.507 264.191 178.676 262.006 177.172 260.313C175.669 258.62 173.596 257.538 171.348 257.271C171.705 257.238 172.065 257.214 172.422 257.214H210.399C212.848 257.22 215.196 258.195 216.929 259.926C218.661 261.658 219.638 264.005 219.645 266.454V266.454Z" stroke="#282828" stroke-width="4" stroke-linecap="square" stroke-linejoin="round"/>
<path d="M164.331 282.258C164.331 283.118 164.5 283.97 164.83 284.765C165.159 285.56 165.642 286.282 166.251 286.89C167.451 288.09 169.08 288.819 172.083 288.819H226.662C225.723 288.819 225.978 288.801 226.233 288.777C224.636 288.589 223.164 287.821 222.095 286.62C221.027 285.418 220.436 283.866 220.436 282.258C220.436 280.65 221.027 279.098 222.095 277.896C223.164 276.695 224.636 275.927 226.233 275.739C225.978 275.715 225.723 275.697 226.662 275.697H172.083C167.277 275.7 164.331 278.652 164.331 282.258Z" stroke="#282828" stroke-width="5.47" stroke-linecap="square" stroke-linejoin="round"/>
<path d="M181.221 282.258C181.225 283.997 181.917 285.663 183.147 286.893C184.377 288.123 186.043 288.815 187.782 288.819H225.471C225.723 288.819 225.978 288.801 226.233 288.777C224.636 288.589 223.164 287.821 222.095 286.62C221.027 285.418 220.436 283.866 220.436 282.258C220.436 280.65 221.027 279.098 222.095 277.896C223.164 276.695 224.636 275.927 226.233 275.739C225.978 275.715 225.723 275.697 225.471 275.697H187.782C186.043 275.702 184.377 276.395 183.148 277.624C181.919 278.853 181.226 280.519 181.221 282.258V282.258Z" stroke="#282828" stroke-width="4" stroke-linecap="square" stroke-linejoin="round"/>
<path d="M120.126 232.2H103.29C102.52 232.199 101.766 231.973 101.122 231.551C100.477 231.13 99.9695 230.529 99.66 229.824C99.5405 229.561 99.4894 229.273 99.5114 228.985C99.5335 228.697 99.6279 228.42 99.786 228.179C99.9441 227.937 100.161 227.74 100.416 227.605C100.671 227.47 100.956 227.401 101.244 227.406H119.142C118.299 228.825 118.728 230.796 120.126 232.2Z" fill="#BCBCBC"/>
<path d="M131.013 230.466C131.012 230.925 130.83 231.365 130.505 231.689C130.181 232.014 129.741 232.196 129.282 232.197H120.126C118.728 230.796 118.299 228.825 119.142 227.397H127.227C127.996 227.397 128.749 227.621 129.394 228.04C130.039 228.46 130.548 229.058 130.86 229.761C130.957 229.984 131.009 230.223 131.013 230.466Z" fill="#1355FF"/>
<path d="M126.801 232.2C126.754 232.292 126.698 232.379 126.636 232.461C125.436 234.102 122.829 234.261 120.804 232.779C120.565 232.602 120.338 232.409 120.126 232.2C118.728 230.799 118.299 228.828 119.142 227.4C119.189 227.308 119.245 227.221 119.307 227.139C120.507 225.486 123.102 225.339 125.127 226.809C125.371 226.991 125.6 227.192 125.814 227.409C127.2 228.804 127.632 230.763 126.801 232.2Z" fill="white"/>
<path d="M135.246 241.035C135.243 241.494 135.058 241.934 134.732 242.258C134.406 242.581 133.965 242.763 133.506 242.763H115.839C116.691 241.329 116.265 239.373 114.864 237.963H131.46C132.231 237.963 132.984 238.188 133.63 238.609C134.275 239.03 134.783 239.63 135.093 240.336C135.192 240.556 135.244 240.794 135.246 241.035Z" fill="#1355FF"/>
<path d="M115.839 242.763H107.526C106.756 242.764 106.003 242.54 105.358 242.121C104.713 241.701 104.204 241.103 103.893 240.399C103.795 240.179 103.743 239.941 103.74 239.7C103.74 239.473 103.784 239.248 103.871 239.038C103.957 238.828 104.085 238.638 104.245 238.477C104.406 238.317 104.596 238.189 104.806 238.103C105.016 238.016 105.241 237.972 105.468 237.972H114.864C116.265 239.373 116.7 241.329 115.839 242.763Z" fill="#BCBCBC"/>
<path d="M115.839 242.763C115.8 242.857 115.749 242.946 115.686 243.027C114.486 244.677 111.888 244.827 109.866 243.354C109.621 243.172 109.391 242.971 109.176 242.754C107.787 241.353 107.361 239.397 108.192 237.954C108.24 237.862 108.295 237.774 108.357 237.69C109.557 236.049 112.164 235.89 114.186 237.375C114.427 237.55 114.653 237.744 114.864 237.954C116.265 239.373 116.7 241.329 115.839 242.763Z" fill="white"/>
<path d="M121.725 253.254H111.147C110.378 253.253 109.625 253.029 108.981 252.61C108.336 252.19 107.826 251.593 107.514 250.89C107.395 250.627 107.344 250.337 107.367 250.049C107.389 249.761 107.483 249.483 107.642 249.241C107.8 248.999 108.017 248.801 108.272 248.665C108.527 248.529 108.812 248.46 109.101 248.463H120.741C119.907 249.9 120.336 251.853 121.725 253.254Z" fill="#1355FF"/>
<path d="M138.867 251.538C138.865 251.994 138.681 252.431 138.358 252.753C138.034 253.075 137.595 253.255 137.139 253.254H121.725C120.336 251.853 119.907 249.897 120.741 248.454H135.081C135.852 248.454 136.605 248.679 137.251 249.1C137.896 249.521 138.404 250.122 138.714 250.827C138.813 251.051 138.865 251.293 138.867 251.538Z" fill="#BCBCBC"/>
<path d="M128.4 253.254C128.352 253.346 128.297 253.434 128.235 253.518C127.035 255.168 124.44 255.318 122.415 253.845C122.172 253.662 121.942 253.461 121.728 253.245C120.339 251.844 119.91 249.888 120.744 248.445C120.79 248.352 120.844 248.264 120.906 248.181C122.106 246.54 124.713 246.399 126.738 247.866C126.979 248.041 127.205 248.235 127.416 248.445C128.814 249.864 129.24 251.832 128.4 253.254Z" fill="white"/>
<path d="M48.483 157.611L48.747 157.686L48.648 158.07C48.5853 157.92 48.5302 157.767 48.483 157.611Z" fill="#353642"/>
<path d="M95.4319 181.612C99.3809 180.453 101.456 175.676 100.067 170.944C98.6773 166.211 94.3497 163.314 90.4007 164.473C86.4517 165.633 84.3767 170.409 85.766 175.142C87.1554 179.874 91.4829 182.771 95.4319 181.612Z" fill="#BCBCBC"/>
</svg>
