<svg width="726" height="514" viewBox="0 0 726 514" fill="none" xmlns="http://www.w3.org/2000/svg">
<path d="M481.16 510.08C489.768 510.08 498.139 509.696 506.272 508.928C561.184 503.864 604.6 482.216 633.472 451.992C648.745 436.24 660.295 417.266 667.272 396.464C673.844 376.771 675.761 355.823 672.872 335.264C652.92 193.552 485.352 262.464 555.6 176.272C625.848 90.08 488.328 -19.544 435.56 6.40001C382.792 32.344 440.984 87.832 310.584 61.6C180.184 35.368 207.168 150.624 207.168 150.624" stroke="#BCBCBC" stroke-width="4.82" stroke-miterlimit="10"/>
<path d="M130.08 387.776C130.08 387.776 70.36 344.952 47.304 392.312C47.304 392.312 71.552 306.376 154.256 275.64C154.256 275.64 177.896 262.488 178.936 270.432C179.976 278.376 186.832 282.432 189.832 282.336C192.832 282.24 218.16 283.824 219.04 280.04C219.92 276.256 218.24 264.92 230.8 264.84C243.36 264.76 311.512 281.504 331 299.2C331 299.2 297.08 340.152 315.216 385.304L299.936 381.6C299.936 381.6 309.36 463.2 296.512 510.664H74.592C74.592 510.664 96.776 513.456 119.528 497.224L152.568 454.824C152.568 454.824 167.056 432.872 196.656 429.736C196.656 429.736 213.504 427.896 213.344 419.888C213.184 411.88 219.416 425.016 227.744 413.44C228.76 413.44 249 414.608 249 414.608C249 414.608 264.2 416.032 267.056 402.464C269.912 388.896 280.44 293.664 276.656 287.944C272.872 282.224 271.424 282.152 239.488 282.344C207.552 282.536 179.488 276.168 175.424 292.056C171.36 307.944 166.664 368.144 166.664 368.144C166.664 368.144 148.664 372.856 134.952 392.352C135 392.344 130.08 401.848 130.08 387.776Z" fill="#2E2E2E"/>
<path d="M130.08 358.856V396.344" stroke="#282828" stroke-width="4.82" stroke-miterlimit="10"/>
<path d="M298.912 377.6C334.152 396.32 431.544 434.568 435 287.456C435 287.456 430.808 248.824 441.736 243.784C452.664 238.744 470.288 222.784 447.592 184.144L462.4 169.368C464.401 167.309 465.502 164.539 465.46 161.668C465.419 158.798 464.239 156.061 462.18 154.06C460.121 152.059 457.351 150.958 454.48 151C451.61 151.041 448.873 152.221 446.872 154.28L417.44 185.48C417.44 185.48 413.176 177.48 405.616 181.648C398.056 185.816 370.328 203.504 382.92 240.44L350.168 334.52" stroke="#282828" stroke-width="4.82" stroke-miterlimit="10"/>
<path d="M417.4 185.464C417.4 185.464 425.248 197.408 408.544 209.616" stroke="#282828" stroke-width="4.82" stroke-miterlimit="10"/>
<path d="M452.424 193.424C452.424 193.424 457.312 208.776 437.592 218.68C430.616 222.184 422.96 214.808 426.256 207.728C426.312 207.624 426.36 207.512 426.416 207.4" stroke="#282828" stroke-width="4.82" stroke-miterlimit="10"/>
<path d="M458.392 212.384C458.392 212.384 454.08 227.376 442.28 228.096C431.84 228.728 433.592 218.08 433.592 218.08" stroke="#282828" stroke-width="4.82" stroke-miterlimit="10"/>
<path d="M256.52 202.992C255.72 203.2 255.216 202.536 254.472 202.664C243.776 200.712 235.824 192.264 234.928 188.2C235.232 190.416 239.296 190.192 238.608 192.456C238.48 192.888 238.224 192.72 238.016 193.136C237.68 193.936 237.688 192.84 237.216 193.56C234.592 189.68 233.072 187.752 232.608 185.616C232.923 187.909 232.738 190.242 232.064 192.456C231.94 192.889 231.777 193.309 231.576 193.712C229.976 197.488 226.64 200.68 221.064 201.472C219.666 201.649 218.254 201.695 216.848 201.608C212.848 201.376 209.392 201.144 206.448 201.016C196.608 200.576 193.08 201.32 194.184 207.672C194.793 210.545 195.655 213.359 196.76 216.08C198.712 221.216 200.072 230.112 198.072 239.8V239.856C195.752 251.136 188.408 259.856 172.672 268.048C169.884 269.487 167.009 270.751 164.064 271.832C136.76 281.96 71.448 307.616 44.376 401.696C41.496 411.72 39.344 420.84 37.824 429.168L37.08 428.736C18.592 417.656 6.53596 392.8 10.2 371.416C12.024 360.8 18.936 353.392 27.8 347.816C34.024 343.96 40.68 340.8 46.256 336.04C64.736 320.256 49.96 295.712 60.192 276.84C71.728 255.608 89.792 242.52 113.376 241.44C119.312 241.696 125.992 242.392 132.472 242.08C141.88 242.416 151.496 241.648 158.384 235.48C163.808 230.68 164.936 222.856 166.992 216.328C169.307 208.967 171.238 201.49 172.776 193.928C174.183 186.759 176.808 179.883 180.536 173.6C184.561 166.791 190.237 161.107 197.04 157.072C202.974 153.722 209.591 151.761 216.392 151.336C222.585 151.701 228.61 153.498 233.992 156.584C235.83 157.67 237.567 158.918 239.184 160.312C251.096 170.472 256.8 187.672 256.52 202.992Z" fill="#1355FF"/>
<path d="M437.256 227.2C437.256 227.2 433.44 231.936 435.528 236.432C437.616 240.928 442.8 241.976 447.84 240.008" stroke="#282828" stroke-width="4.82" stroke-miterlimit="10"/>
<path d="M447.576 184.144L437.032 194.68" stroke="#282828" stroke-width="4.82" stroke-miterlimit="10"/>
<path d="M166.704 367.112L175.288 293.112C175.635 290.118 177.071 287.356 179.322 285.351C181.573 283.347 184.482 282.24 187.496 282.24H266.328C268.053 282.239 269.759 282.601 271.334 283.303C272.91 284.005 274.32 285.031 275.473 286.314C276.626 287.597 277.496 289.108 278.027 290.749C278.557 292.39 278.736 294.125 278.552 295.84L267.064 402.472C266.738 405.487 265.31 408.275 263.054 410.301C260.798 412.327 257.872 413.448 254.84 413.448H226.632" stroke="#282828" stroke-width="4.82" stroke-miterlimit="10"/>
<path d="M259.88 301.088C261.656 301.088 263.096 299.648 263.096 297.872C263.096 296.096 261.656 294.656 259.88 294.656C258.104 294.656 256.664 296.096 256.664 297.872C256.664 299.648 258.104 301.088 259.88 301.088Z" fill="#282828"/>
<path d="M206.792 384.28C215.112 386.152 216.776 386.184 224.848 387.384C229.936 388.144 241.568 388.776 241.776 380.88C241.968 373.944 234.184 369.872 228.688 367.656C222.345 365.244 215.707 363.691 208.952 363.04C206.168 362.72 203.371 362.501 200.56 362.384C181.08 361.584 158.608 366.296 145.192 381.536C114.112 416.8 72.784 439.472 72.784 439.472" stroke="#282828" stroke-width="4.82" stroke-miterlimit="10"/>
<path d="M229.072 387.776C233.072 389.472 239.848 393.088 237.072 400.016C235.808 403.216 233.512 404.352 230.36 404.816C223.552 405.8 216.248 404.352 209.56 402.952C207.088 402.432 202.704 401.48 200.264 400.808" stroke="#282828" stroke-width="4.82" stroke-miterlimit="10"/>
<path d="M221.96 404.976C221.96 404.976 229.232 404.888 227.48 411.648C224.592 422.848 202.152 417.776 191.656 415.424" stroke="#282828" stroke-width="4.82" stroke-miterlimit="10"/>
<path d="M222.408 265.448C256.6 266.944 308.704 276.968 355.952 317.84" stroke="#282828" stroke-width="4.82" stroke-miterlimit="10"/>
<path d="M481.16 510.088L74.592 510.696" stroke="#282828" stroke-width="4.82" stroke-miterlimit="10"/>
<path d="M298.912 362.304C298.912 362.304 306.912 436.76 298.912 510.088" stroke="#282828" stroke-width="4.82" stroke-miterlimit="10"/>
<path opacity="0.54" d="M651.968 328.296L722.28 148.128C723.152 144.642 723.217 141.003 722.472 137.488C721.727 133.973 720.191 130.674 717.98 127.841C715.769 125.009 712.941 122.717 709.712 121.141C706.483 119.565 702.937 118.745 699.344 118.744H420.024C413.752 118.743 407.663 120.854 402.737 124.736C397.812 128.618 394.337 134.046 392.872 140.144L315.88 320.272C315.044 323.749 315.008 327.369 315.773 330.862C316.538 334.355 318.086 337.629 320.299 340.437C322.512 343.245 325.333 345.515 328.55 347.076C331.767 348.637 335.296 349.448 338.872 349.448H624.872C631.1 349.448 637.15 347.367 642.06 343.534C646.969 339.702 650.457 334.338 651.968 328.296V328.296Z" fill="#FFFEFE"/>
<path d="M651.968 328.296L722.28 148.128C723.152 144.642 723.217 141.003 722.472 137.488C721.727 133.973 720.191 130.674 717.98 127.841C715.769 125.009 712.941 122.717 709.712 121.141C706.483 119.565 702.937 118.745 699.344 118.744H420.024C413.752 118.743 407.663 120.854 402.737 124.736C397.812 128.618 394.337 134.046 392.872 140.144L315.88 320.272C315.044 323.749 315.008 327.369 315.773 330.862C316.538 334.355 318.086 337.629 320.299 340.437C322.512 343.245 325.333 345.515 328.55 347.076C331.767 348.637 335.296 349.448 338.872 349.448H624.872C631.1 349.448 637.15 347.367 642.06 343.534C646.969 339.702 650.457 334.338 651.968 328.296V328.296Z" fill="#1355FF"/>
<path d="M651.968 328.296L722.28 148.128C723.152 144.642 723.217 141.003 722.472 137.488C721.727 133.973 720.191 130.674 717.98 127.841C715.769 125.009 712.941 122.717 709.712 121.141C706.483 119.565 702.937 118.745 699.344 118.744H420.024C413.752 118.743 407.663 120.854 402.737 124.736C397.812 128.618 394.337 134.046 392.872 140.144L315.88 320.272C315.044 323.749 315.008 327.369 315.773 330.862C316.538 334.355 318.086 337.629 320.299 340.437C322.512 343.245 325.333 345.515 328.55 347.076C331.767 348.637 335.296 349.448 338.872 349.448H624.872C631.1 349.448 637.15 347.367 642.06 343.534C646.969 339.702 650.457 334.338 651.968 328.296V328.296Z" stroke="#282828" stroke-width="4.82" stroke-linecap="square" stroke-linejoin="round"/>
<path d="M641.68 321L706.552 154.784C707.355 151.569 707.415 148.213 706.728 144.971C706.041 141.729 704.624 138.687 702.585 136.074C700.546 133.462 697.939 131.348 694.962 129.894C691.984 128.439 688.714 127.682 685.4 127.68H427.696C421.91 127.679 416.292 129.626 411.748 133.208C407.203 136.79 403.998 141.798 402.648 147.424L331.616 313.6C330.845 316.807 330.812 320.148 331.519 323.37C332.226 326.592 333.654 329.612 335.696 332.202C337.738 334.793 340.341 336.886 343.309 338.326C346.278 339.765 349.533 340.513 352.832 340.512H616.688C622.432 340.509 628.011 338.588 632.539 335.053C637.067 331.518 640.284 326.572 641.68 321V321Z" fill="#1355FF"/>
<path d="M446.288 158.24C449.704 153.112 455.296 150.832 458.776 153.144C462.256 155.456 462.304 161.496 458.888 166.624C458.358 167.412 457.758 168.151 457.096 168.832L482.416 222.288C486.416 219.592 490.896 218.928 494.08 221.048C496.136 222.416 497.28 224.744 497.64 227.448L514.936 221.608L530.064 216.552C531.664 216 533.352 215.472 535 214.952C535.622 213.095 536.485 211.328 537.568 209.696C542.368 202.496 550.216 199.296 555.096 202.496C559.976 205.696 560.04 214.072 555.376 221.232L584.176 260.616C590.456 255.464 597.856 253.872 602.984 257.28C609.96 261.92 610.064 274.032 603.216 284.328C602.944 284.736 602.632 285.072 602.344 285.464L621.544 311.696C621.6 311.776 621.672 311.872 621.72 311.952C622.205 312.684 622.542 313.505 622.71 314.367C622.878 315.229 622.875 316.116 622.7 316.977C622.526 317.838 622.183 318.656 621.692 319.385C621.202 320.114 620.572 320.739 619.84 321.224C619.108 321.709 618.287 322.046 617.425 322.214C616.563 322.382 615.676 322.379 614.815 322.204C613.954 322.03 613.135 321.687 612.407 321.196C611.678 320.706 611.053 320.076 610.568 319.344L593.52 293.624C588.128 296.752 582.4 297.352 578.2 294.552C571.528 290.12 571.208 278.888 577.152 268.952L549.544 227.296C545.472 230.064 540.976 230.768 537.752 228.632C535.952 227.362 534.724 225.433 534.336 223.264C533.648 223.448 532.968 223.648 532.28 223.84L516.896 228.04L497.208 233.344C496.605 235.704 495.61 237.946 494.264 239.976C489.464 247.176 481.624 250.376 476.736 247.136C471.848 243.896 471.776 235.408 476.568 228.2C477.283 227.155 478.086 226.172 478.968 225.264L454.864 170.76C451.96 172.736 448.752 173.248 446.456 171.72C442.928 169.416 442.872 163.376 446.288 158.24Z" fill="#FFFEFE"/>
<path d="M629.648 161.192H667C668.709 161.192 670.381 160.694 671.811 159.759C673.242 158.824 674.369 157.493 675.056 155.928C675.275 155.448 675.392 154.928 675.4 154.4C675.392 153.38 674.981 152.405 674.257 151.686C673.534 150.967 672.556 150.562 671.536 150.56H631.8C633.696 153.72 632.752 158.088 629.648 161.192Z" fill="#BCBCBC"/>
<path d="M605.496 157.36C605.498 158.377 605.904 159.352 606.624 160.07C607.343 160.789 608.319 161.192 609.336 161.192H629.648C632.752 158.088 633.696 153.72 631.832 150.56H613.896C612.189 150.559 610.518 151.055 609.088 151.987C607.658 152.918 606.529 154.246 605.84 155.808C605.623 156.297 605.506 156.825 605.496 157.36V157.36Z" fill="#1355FF"/>
<path d="M614.84 161.192C614.945 161.397 615.068 161.593 615.208 161.776C617.872 165.416 623.648 165.776 628.144 162.48C628.676 162.088 629.179 161.657 629.648 161.192C632.752 158.088 633.696 153.72 631.832 150.56C631.727 150.357 631.603 150.165 631.464 149.984C628.824 146.32 623.048 145.984 618.552 149.256C618.013 149.655 617.502 150.09 617.024 150.56C613.944 153.672 613 158.016 614.84 161.192Z" fill="#FFFEFE"/>
<path d="M596.104 180.8C596.112 181.819 596.523 182.794 597.247 183.512C597.971 184.229 598.949 184.632 599.968 184.632H639.168C637.272 181.432 638.216 177.112 641.328 174.008H604.528C602.819 174.008 601.147 174.506 599.717 175.441C598.286 176.376 597.159 177.707 596.472 179.272C596.248 179.752 596.123 180.271 596.104 180.8V180.8Z" fill="#1355FF"/>
<path d="M639.16 184.632H657.56C659.266 184.633 660.936 184.139 662.367 183.209C663.797 182.278 664.926 180.952 665.616 179.392C665.837 178.904 665.954 178.375 665.96 177.84C665.961 177.336 665.863 176.838 665.671 176.372C665.478 175.907 665.196 175.484 664.84 175.128C664.484 174.772 664.061 174.49 663.596 174.297C663.13 174.105 662.632 174.007 662.128 174.008H641.32C638.2 177.112 637.264 181.456 639.16 184.632Z" fill="#BCBCBC"/>
<path d="M639.16 184.632C639.243 184.842 639.356 185.039 639.496 185.216C642.144 188.88 647.92 189.216 652.408 185.944C652.952 185.549 653.463 185.11 653.936 184.632C657.016 181.528 657.936 177.184 656.12 174.008C656.018 173.803 655.897 173.608 655.76 173.424C653.088 169.784 647.312 169.424 642.824 172.72C642.289 173.108 641.786 173.539 641.32 174.008C638.2 177.112 637.264 181.456 639.16 184.632Z" fill="#FFFEFE"/>
<path d="M626.104 207.912H649.568C651.275 207.913 652.946 207.417 654.376 206.485C655.806 205.554 656.935 204.226 657.624 202.664C657.845 202.185 657.962 201.664 657.968 201.136C657.964 200.113 657.555 199.134 656.831 198.411C656.107 197.689 655.127 197.282 654.104 197.28H628.288C630.128 200.456 629.184 204.8 626.104 207.912Z" fill="#1355FF"/>
<path d="M588.072 204.096C588.076 205.111 588.483 206.083 589.203 206.798C589.923 207.514 590.897 207.914 591.912 207.912H626.104C629.184 204.8 630.104 200.456 628.288 197.28H596.472C594.763 197.28 593.091 197.778 591.661 198.713C590.23 199.648 589.103 200.979 588.416 202.544C588.197 203.032 588.079 203.561 588.072 204.096Z" fill="#BCBCBC"/>
<path d="M611.296 207.912C611.401 208.115 611.525 208.307 611.664 208.488C614.304 212.152 620.08 212.488 624.576 209.216C625.115 208.817 625.626 208.382 626.104 207.912C629.184 204.8 630.104 200.456 628.288 197.28C628.183 197.075 628.06 196.879 627.92 196.696C625.256 193.056 619.48 192.744 614.984 195.992C614.452 196.384 613.949 196.815 613.48 197.28C610.376 200.384 609.4 204.752 611.296 207.912Z" fill="#FFFEFE"/>
<path d="M474.408 317.712H497.872C499.579 317.713 501.25 317.217 502.68 316.285C504.11 315.354 505.239 314.026 505.928 312.464C506.196 311.88 506.311 311.238 506.264 310.597C506.216 309.956 506.006 309.338 505.655 308.8C505.303 308.262 504.821 307.822 504.253 307.522C503.685 307.221 503.05 307.069 502.408 307.08H476.6C478.432 310.256 477.488 314.6 474.408 317.712Z" fill="#1355FF"/>
<path d="M381.256 313.896C381.257 314.398 381.357 314.895 381.55 315.359C381.743 315.822 382.026 316.243 382.382 316.598C382.737 316.952 383.16 317.233 383.624 317.424C384.088 317.615 384.586 317.713 385.088 317.712H474.408C477.488 314.6 478.408 310.256 476.592 307.08H389.656C387.947 307.08 386.275 307.578 384.845 308.513C383.414 309.448 382.287 310.779 381.6 312.344C381.381 312.832 381.263 313.361 381.256 313.896V313.896Z" fill="#BCBCBC"/>
<path d="M459.6 317.712C459.705 317.915 459.829 318.107 459.968 318.288C462.608 321.96 468.384 322.288 472.88 319.016C473.419 318.617 473.93 318.182 474.408 317.712C477.488 314.6 478.408 310.256 476.592 307.08C476.487 306.875 476.364 306.679 476.224 306.496C473.552 302.856 467.776 302.544 463.288 305.792C462.756 306.184 462.253 306.615 461.784 307.08C458.68 310.184 457.736 314.552 459.6 317.712Z" fill="#FFFEFE"/>
<path d="M39.16 432.944C36.1808 431.769 33.2998 430.359 30.544 428.728C12.04 417.648 -0.0160081 392.8 3.65599 371.408C5.48799 360.792 12.4 353.392 21.296 347.808C27.512 343.952 34.2 340.8 39.752 336.04C58.232 320.256 43.448 295.704 53.68 276.84C66.12 253.96 86.12 240.544 112.472 241.416C125.12 241.832 141.544 244.736 151.872 235.48C157.296 230.68 158.432 222.856 160.488 216.328C162.806 208.967 164.739 201.49 166.28 193.928C167.665 186.76 170.274 179.883 173.992 173.6C178.016 166.784 183.692 161.092 190.496 157.048C203.296 149.664 221.144 148.984 234.008 156.576C235.84 157.665 237.574 158.909 239.192 160.296C251.096 170.504 256.792 187.696 256.52 203.024" stroke="#282828" stroke-width="4.82" stroke-miterlimit="10"/>
<path d="M232.344 184.264C233.008 188.776 235.752 192.936 240.624 194.184C246.128 195.584 249.048 200.944 250.6 206.328C252.805 214.227 252.241 222.643 249 230.176C245.992 237.264 240.632 245.376 231.568 246.648C214.984 249.048 206.728 242.024 206.728 242.024" stroke="#282828" stroke-width="4.82" stroke-miterlimit="10"/>
<path d="M218.528 208.368C220.101 208.368 221.376 207.093 221.376 205.52C221.376 203.947 220.101 202.672 218.528 202.672C216.955 202.672 215.68 203.947 215.68 205.52C215.68 207.093 216.955 208.368 218.528 208.368Z" fill="#282828"/>
<path d="M243.576 206.48C245.149 206.48 246.424 205.205 246.424 203.632C246.424 202.059 245.149 200.784 243.576 200.784C242.003 200.784 240.728 202.059 240.728 203.632C240.728 205.205 242.003 206.48 243.576 206.48Z" fill="#282828"/>
<path d="M211.92 418.6C216.064 421.144 212.72 425.336 209.712 426.752C204.544 429.152 197.864 429.576 192.232 430.248C149.408 435.288 135.112 494.072 108.232 505C81.352 515.928 9.21598 523.912 44.4 401.688C71.488 307.624 136.8 281.968 164.104 271.84C167.043 270.76 169.913 269.499 172.696 268.064C188.432 259.888 195.8 251.136 198.112 239.848C198.112 239.848 198.112 239.848 198.112 239.8C200.112 230.112 198.768 221.216 196.808 216.072C195.684 213.355 194.811 210.54 194.2 207.664C192.744 199.48 199.064 200.632 216.808 201.608C224.952 202.088 229.56 198.408 231.544 193.72C231.739 193.314 231.897 192.891 232.016 192.456C232.851 189.802 232.95 186.971 232.304 184.264" stroke="#282828" stroke-width="4.82" stroke-miterlimit="10"/>
<path d="M230.8 206.208C230.8 206.208 233.792 217.144 233.488 218.76C233.184 220.376 229.352 219.128 229.352 219.128" stroke="#282828" stroke-width="4.82" stroke-miterlimit="10"/>
<path d="M228.736 229.144C223 232.232 216.368 230.288 213.776 225.144" stroke="#282828" stroke-width="4.82" stroke-miterlimit="10"/>
<path d="M223.101 217.158C228.444 212.114 228.785 203.798 223.863 198.584C218.94 193.369 210.618 193.231 205.275 198.275C199.932 203.318 199.591 211.634 204.514 216.849C209.436 222.063 217.758 222.202 223.101 217.158Z" stroke="#282828" stroke-width="4.82" stroke-miterlimit="10"/>
<path d="M256.326 214.124C261.669 209.081 262.01 200.765 257.087 195.55C252.165 190.336 243.843 190.197 238.5 195.241C233.157 200.285 232.816 208.601 237.739 213.815C242.661 219.03 250.983 219.168 256.326 214.124Z" stroke="#282828" stroke-width="4.82" stroke-miterlimit="10"/>
<path d="M247.688 195.56C249.936 195.545 252.105 196.392 253.749 197.925C255.393 199.459 256.387 201.564 256.528 203.808C256.671 206.252 255.861 208.655 254.267 210.513C252.673 212.371 250.421 213.538 247.984 213.768C247.704 213.768 247.416 213.768 247.136 213.768C244.901 213.784 242.743 212.949 241.101 211.432C239.459 209.915 238.456 207.83 238.296 205.6C238.142 203.15 238.947 200.736 240.542 198.869C242.137 197.003 244.396 195.83 246.84 195.6C247.12 195.6 247.408 195.6 247.688 195.6V195.56ZM247.688 193.672C247.352 193.672 247.008 193.672 246.664 193.72C243.728 193.999 241.015 195.405 239.095 197.643C237.175 199.881 236.197 202.776 236.368 205.72C236.547 208.45 237.761 211.009 239.762 212.874C241.763 214.74 244.4 215.772 247.136 215.76C247.472 215.76 247.816 215.76 248.16 215.712C251.096 215.437 253.811 214.032 255.731 211.793C257.65 209.553 258.625 206.656 258.448 203.712C258.288 200.97 257.084 198.393 255.082 196.512C253.081 194.631 250.435 193.589 247.688 193.6V193.672Z" fill="#FFFEFE"/>
<path d="M227.312 206.528L234.288 205.888" stroke="#282828" stroke-width="4.82" stroke-miterlimit="10"/>
<path d="M214.472 198.336C216.789 198.313 219.025 199.182 220.72 200.761C222.414 202.341 223.437 204.512 223.576 206.824C223.726 209.342 222.892 211.82 221.25 213.735C219.609 215.65 217.287 216.852 214.776 217.088C214.488 217.088 214.192 217.088 213.904 217.088C211.586 217.109 209.348 216.239 207.653 214.658C205.957 213.077 204.933 210.906 204.792 208.592C204.644 206.075 205.479 203.6 207.12 201.687C208.762 199.773 211.082 198.572 213.592 198.336C213.884 198.307 214.178 198.293 214.472 198.296V198.336ZM214.472 196.368C214.12 196.368 213.768 196.384 213.416 196.416C210.39 196.697 207.594 198.149 205.625 200.463C203.655 202.777 202.667 205.768 202.872 208.8C203.055 211.597 204.299 214.219 206.349 216.131C208.399 218.042 211.101 219.1 213.904 219.088C214.248 219.088 214.6 219.088 214.952 219.04C217.964 218.757 220.747 217.314 222.715 215.017C224.682 212.72 225.68 209.747 225.496 206.728C225.315 203.932 224.073 201.31 222.024 199.398C219.975 197.486 217.274 196.428 214.472 196.44V196.368Z" fill="#FFFEFE"/>
<path d="M255.063 212.787C259.644 208.462 259.933 201.327 255.709 196.852C251.484 192.376 244.345 192.254 239.763 196.579C235.182 200.904 234.893 208.039 239.117 212.514C243.342 216.99 250.481 217.112 255.063 212.787Z" fill="#1355FF"/>
<path d="M224.24 216.286C228.862 211.918 229.151 204.718 224.886 200.206C220.621 195.694 213.417 195.577 208.795 199.946C204.173 204.315 203.884 211.514 208.149 216.026C212.414 220.539 219.618 220.655 224.24 216.286Z" fill="#1355FF"/>
<path d="M185.984 282.336C182.464 278.664 179.408 273.264 177.4 265.448" stroke="#282828" stroke-width="4.82" stroke-miterlimit="10"/>
<path d="M218.528 282.24L222.408 265.448L226.624 247.352" stroke="#282828" stroke-width="4.82" stroke-miterlimit="10"/>
<path d="M234.388 349.102C235.879 341.785 231.845 334.786 225.377 333.467C218.909 332.149 212.457 337.012 210.966 344.328C209.474 351.644 213.509 358.644 219.977 359.963C226.445 361.281 232.897 356.418 234.388 349.102Z" fill="#BCBCBC"/>
<path d="M481.856 468.144L475.296 504.8C475.112 505.829 474.572 506.761 473.771 507.432C472.969 508.103 471.957 508.471 470.912 508.472H436.6C435.544 508.473 434.521 508.099 433.716 507.416C432.91 506.733 432.373 505.786 432.2 504.744L426.2 468.144H481.856Z" stroke="#BCBCBC" stroke-width="4.82" stroke-miterlimit="10"/>
<path d="M488.096 464.048C488.004 465.163 487.496 466.203 486.674 466.961C485.852 467.72 484.775 468.142 483.656 468.144H424.456C423.352 468.144 422.288 467.735 421.468 466.997C420.648 466.258 420.131 465.242 420.016 464.144V464.144C419.957 463.526 420.028 462.902 420.224 462.312C420.42 461.723 420.738 461.181 421.156 460.721C421.574 460.262 422.084 459.895 422.652 459.644C423.22 459.393 423.835 459.264 424.456 459.264H483.656C484.268 459.265 484.874 459.391 485.436 459.637C485.997 459.882 486.502 460.24 486.918 460.689C487.335 461.138 487.654 461.668 487.857 462.246C488.06 462.824 488.141 463.437 488.096 464.048V464.048Z" stroke="#BCBCBC" stroke-width="4.82" stroke-miterlimit="10"/>
<path d="M455.92 459.2C455.92 457.32 460.72 433.904 456.72 413.144C454.544 401.752 449.744 391.168 440.08 385.368" stroke="#BCBCBC" stroke-width="4.82" stroke-miterlimit="10"/>
<path d="M456.736 413.176C456.736 413.176 457.832 397.4 471.464 396.312" stroke="#BCBCBC" stroke-width="4.82" stroke-miterlimit="10"/>
<path d="M458.2 437.248C462.078 434.531 466.75 433.18 471.48 433.408" stroke="#BCBCBC" stroke-width="4.82" stroke-miterlimit="10"/>
<path d="M458.2 426.04C458.2 426.04 448.296 414.312 432.472 423.592" stroke="#BCBCBC" stroke-width="4.82" stroke-miterlimit="10"/>
<path d="M451.216 421.32C451.216 421.32 428.912 400.952 424.544 428.52C424.544 428.52 430.824 432.608 440.096 428.52C449.368 424.432 451.216 421.32 451.216 421.32Z" stroke="#BCBCBC" stroke-width="4.82" stroke-miterlimit="10"/>
<path d="M461.64 401.112C461.64 401.112 460.84 391.944 471.464 388.944C482.088 385.944 488.112 398.496 488.112 398.496C488.112 398.496 479.912 407.56 461.64 401.112Z" stroke="#BCBCBC" stroke-width="4.82" stroke-miterlimit="10"/>
<path d="M464.104 433.4C464.104 433.4 463.736 424.128 476.104 426.04C488.472 427.952 490.504 438.504 490.504 438.504C490.504 438.504 470.248 445.928 464.104 434.376" stroke="#BCBCBC" stroke-width="4.82" stroke-miterlimit="10"/>
<path d="M449.2 393.976C449.2 394.632 439.904 393.176 439.312 392.968C434.808 391.624 431.608 388.504 429.504 384.376C428.856 383.096 425.104 375.92 426.168 374.672C426.2 374.672 448.296 367.552 449.2 393.976Z" stroke="#BCBCBC" stroke-width="4.82" stroke-miterlimit="10"/>
<path d="M667.288 396.464C660.312 417.269 648.762 436.245 633.488 452C604.6 482.224 561.184 503.872 506.288 508.936V396.464H667.288Z" stroke="#BCBCBC" stroke-width="4.82" stroke-miterlimit="10"/>
<path d="M633.488 452C604.6 482.224 561.184 503.872 506.288 508.936V452H633.488Z" stroke="#BCBCBC" stroke-width="4.82" stroke-miterlimit="10"/>
<path d="M616.776 425.34C616.776 420.853 613.139 417.216 608.652 417.216C604.165 417.216 600.528 420.853 600.528 425.34C600.528 429.827 604.165 433.464 608.652 433.464C613.139 433.464 616.776 429.827 616.776 425.34Z" stroke="#BCBCBC" stroke-width="4.82" stroke-miterlimit="10"/>
</svg>
