<svg width="300" height="300" viewBox="0 0 300 300" fill="none" xmlns="http://www.w3.org/2000/svg">
<path d="M26.3999 166.653C26.1899 163.983 26.0279 161.31 25.8989 158.643" stroke="#282828" stroke-width="4.05" stroke-miterlimit="10"/>
<path d="M178.242 262.692H102.036" stroke="#BCBCBC" stroke-width="4.05" stroke-miterlimit="10"/>
<path d="M200.49 71.787C200.49 71.787 222.948 61.182 242.001 81.873C248.226 88.635 252.474 97.608 252.774 106.866C252.91 111.383 252.182 115.885 250.629 120.129C249.048 124.461 246.21 127.329 244.029 131.187C240.684 137.136 247.677 138.189 251.43 141.072C253.924 143.004 256.29 145.097 258.513 147.336C263.522 152.339 267.93 157.909 271.647 163.935C279.007 175.937 283.438 189.503 284.583 203.535C285.714 217.371 284.847 232.395 277.752 244.686C274.338 250.605 269.196 256.41 262.872 259.17C254.472 262.833 245.037 262.695 236.061 262.695H216.96" stroke="#BCBCBC" stroke-width="4.05" stroke-miterlimit="10"/>
<path d="M106.875 210.042C106.122 215.4 105 221.547 103.761 227.7L102.3 228.117C97.6242 229.431 92.6588 229.285 88.0679 227.7L89.9819 221.196L78.3299 187.296C78.3299 187.296 87.2369 184.416 94.551 182.277L95.3909 182.241C99.387 183.084 107.622 186.249 107.88 198.102C107.898 198.672 107.88 199.272 107.88 199.926C109.041 203.751 108.579 207.123 106.875 210.042Z" fill="#1355FF"/>
<path d="M79.4489 81C79.3341 80.7077 79.1093 80.472 78.8227 80.3435C78.5361 80.2151 78.2105 80.2041 77.9159 80.313C77.7508 80.3629 77.5983 80.4478 77.4689 80.562C77.0069 80.937 76.9019 81.594 76.8869 82.218C76.8449 83.643 76.7639 85.071 76.6589 86.49C76.6589 86.586 76.6439 86.694 76.6439 86.79C76.5779 87.933 76.6259 89.319 76.1399 90.315C76.1088 90.391 76.0555 90.4558 75.9869 90.501C75.8249 90.576 75.6539 90.414 75.5489 90.267C75.2489 89.829 74.9489 89.4 74.6489 88.953C74.4119 88.596 74.1449 88.209 73.7309 88.095C73.1159 87.924 72.5309 88.467 72.1919 89.019C71.0969 90.819 70.9919 93.768 72.6869 95.277C74.3819 96.786 70.5869 99.753 67.8689 101.001C67.4139 101.257 66.9371 101.472 66.4439 101.643C66.4199 101.643 67.4249 101.868 67.4009 101.877C65.286 102.613 63.0828 103.066 60.8489 103.224C58.1969 103.401 55.6109 103.068 53.7299 101.916C53.8109 101.616 54.4529 99.516 54.4919 99.216C54.6299 98.169 54.7289 97.131 54.7919 96.078C54.9059 94.101 54.8969 92.121 54.8219 90.15C54.5489 83.058 55.8119 77.1 58.7399 76.191C58.9711 76.1216 59.1928 76.0239 59.3999 75.9C60.7199 75.171 61.4249 73.632 60.8189 72.18C60.7769 72.081 60.7289 71.985 60.6869 71.88C60.6396 71.7765 60.5855 71.6763 60.5249 71.58C66.2429 69.804 70.1249 71.037 74.0489 73.185C74.7957 73.7817 75.4976 74.4324 76.1489 75.132C77.6849 76.7995 78.8143 78.7996 79.4489 80.976V81Z" fill="#1355FF"/>
<path d="M216.9 149.187H197.4V102.579C197.4 102.579 193.8 143.076 183.936 166.02H123.543C130.662 161.496 136.371 154.662 140.172 147.306C141.672 144.396 144.072 140.076 148.062 141.21C149.01 141.477 150.405 141.648 151.11 140.781C151.353 140.448 151.491 140.05 151.506 139.638C151.848 135.39 147.444 131.814 143.814 130.686C140.184 129.558 135.942 130.086 133.053 132.723C130.971 134.628 129.666 137.157 128.142 139.5C127.227 140.888 126.143 142.157 124.914 143.277C126.48 133.767 127.875 124.677 128.076 121.332C131.895 118.317 134.7 113.4 135.696 109.05C136.791 104.298 137.757 99.651 139.458 95.202L153.381 95.25C153.905 95.25 154.408 95.0417 154.779 94.671C155.15 94.3002 155.358 93.7973 155.358 93.273V70.149C155.359 69.6294 155.154 69.1306 154.788 68.7618C154.422 68.393 153.925 68.1842 153.405 68.181L143.925 68.1C147.37 67.3799 150.864 66.9136 154.377 66.705C154.449 66.705 154.515 66.705 154.578 66.705C156.891 66.552 160.944 66.486 163.278 66.462C160.497 67.962 158.778 71.148 159.078 73.962C159.131 74.5613 159.284 75.1475 159.531 75.696C161.907 80.916 168.165 82.458 173.331 80.94C179.079 79.263 183.303 73.977 183.051 67.896C186.651 68.424 190.215 69.094 193.743 69.906C199.104 71.139 204.333 72.801 208.572 76.425C212.268 79.572 215.4 83.625 216.849 88.206C223.071 107.793 221.157 129.651 216.9 149.187Z" fill="#2E2E2E"/>
<path d="M128.232 121.332C127.794 128.49 126.666 135.642 125.442 142.776" stroke="#282828" stroke-width="4.05" stroke-miterlimit="10"/>
<path d="M139.614 95.202C137.91 99.651 136.947 104.298 135.852 109.05C134.847 113.385 132.048 118.317 128.232 121.332C125.028 123.861 121.104 125.052 116.904 123.456C111.27 121.308 109.293 115.098 108.603 109.623C107.706 102.806 107.652 95.9037 108.441 89.073C109.236 90.84 112.485 96.216 122.562 94.803C122.832 95.0051 123.158 95.1211 123.495 95.136L139.614 95.202Z" fill="#2E2E2E"/>
<path d="M133.956 79.821C136.302 79.221 137.73 81.477 137.382 83.193C136.815 85.992 132.789 87.093 130.392 87.144C128.472 87.183 123.792 86.676 121.884 86.454" stroke="#282828" stroke-width="3" stroke-miterlimit="10"/>
<path d="M121.095 81.207C123.997 82.0457 127.071 82.0964 129.999 81.354C132.462 80.721 135.372 79.554 136.662 77.211C137.415 75.849 136.815 73.677 135.243 73.197C133.428 72.648 131.748 74.454 130.104 74.91C129.043 75.1988 127.961 75.3995 126.867 75.51C126.567 75.543 126.285 75.567 125.994 75.591C124.463 75.7135 122.924 75.7025 121.395 75.558C121.232 75.558 121.074 75.5067 120.942 75.4115C120.81 75.3162 120.711 75.1818 120.66 75.0273C120.609 74.8729 120.608 74.7062 120.657 74.5511C120.706 74.3959 120.802 74.2601 120.933 74.163L121.209 73.962" stroke="#282828" stroke-width="3" stroke-miterlimit="10"/>
<path d="M139.614 95.202C137.91 99.651 136.947 104.298 135.852 109.05C134.004 117.027 126.123 126.966 116.904 123.45C111.27 121.302 109.293 115.092 108.603 109.617C107.523 101.139 107.613 92.43 109.203 84.024C110.523 77.1 112.866 69.828 119.604 66.423L122.766 64.842C123.52 64.4609 124.393 64.39 125.199 64.6445C126.005 64.8991 126.679 65.4588 127.077 66.204C127.32 66.667 127.448 67.1813 127.452 67.704C127.455 67.7804 127.449 67.857 127.434 67.932V67.932" stroke="#282828" stroke-width="3" stroke-miterlimit="10"/>
<path d="M203.838 160.278C205.467 160.227 207.098 160.269 208.722 160.401C210.048 160.509 211.422 160.572 212.685 161.067C213.726 161.481 214.812 162.468 214.758 163.674C214.659 166.038 211.563 166.02 209.865 166.02" stroke="#282828" stroke-width="3" stroke-miterlimit="10"/>
<path opacity="0.54" d="M174.702 158.025L188.82 121.854C188.995 121.153 189.007 120.421 188.857 119.715C188.706 119.008 188.396 118.345 187.951 117.776C187.505 117.208 186.936 116.748 186.286 116.433C185.636 116.117 184.923 115.954 184.2 115.956H128.136C126.88 115.959 125.66 116.384 124.675 117.163C123.689 117.942 122.993 119.03 122.7 120.252L107.226 156.414C107.058 157.112 107.051 157.839 107.205 158.541C107.358 159.242 107.669 159.899 108.113 160.463C108.558 161.027 109.124 161.483 109.77 161.797C110.416 162.11 111.125 162.273 111.843 162.273H169.263C170.513 162.272 171.728 161.854 172.713 161.084C173.698 160.315 174.399 159.238 174.702 158.025Z" fill="white"/>
<path d="M174.702 158.025L188.82 121.854C188.995 121.153 189.007 120.421 188.857 119.715C188.706 119.008 188.396 118.345 187.951 117.776C187.505 117.208 186.936 116.748 186.286 116.433C185.636 116.117 184.923 115.954 184.2 115.956H128.136C126.88 115.959 125.66 116.384 124.675 117.163C123.689 117.942 122.993 119.03 122.7 120.252L107.226 156.414C107.058 157.112 107.051 157.839 107.205 158.541C107.358 159.242 107.669 159.899 108.113 160.463C108.558 161.027 109.124 161.483 109.77 161.797C110.416 162.11 111.125 162.273 111.843 162.273H169.263C170.513 162.272 171.728 161.854 172.713 161.084C173.698 160.315 174.399 159.238 174.702 158.025Z" fill="#1355FF"/>
<path d="M174.702 158.025L188.82 121.854C188.995 121.153 189.007 120.421 188.857 119.715C188.706 119.008 188.396 118.345 187.951 117.776C187.505 117.208 186.936 116.748 186.286 116.433C185.636 116.117 184.923 115.954 184.2 115.956H128.136C126.88 115.959 125.66 116.384 124.675 117.163C123.689 117.942 122.993 119.03 122.7 120.252L107.226 156.414C107.058 157.112 107.051 157.839 107.205 158.541C107.358 159.242 107.669 159.899 108.113 160.463C108.558 161.027 109.124 161.483 109.77 161.797C110.416 162.11 111.125 162.273 111.843 162.273H169.263C170.513 162.272 171.728 161.854 172.713 161.084C173.698 160.315 174.399 159.238 174.702 158.025V158.025Z" stroke="#282828" stroke-width="3" stroke-linecap="square" stroke-linejoin="round"/>
<path d="M172.635 156.561L185.661 123.192C185.822 122.546 185.834 121.872 185.696 121.221C185.558 120.57 185.273 119.958 184.863 119.434C184.454 118.909 183.93 118.485 183.331 118.193C182.733 117.901 182.076 117.75 181.41 117.75H129.675C128.513 117.75 127.386 118.14 126.474 118.859C125.561 119.578 124.918 120.584 124.647 121.713L110.4 155.076C110.246 155.72 110.241 156.39 110.383 157.036C110.525 157.682 110.812 158.288 111.222 158.808C111.632 159.327 112.154 159.747 112.75 160.036C113.345 160.325 113.998 160.475 114.66 160.476H167.619C168.772 160.477 169.892 160.092 170.801 159.382C171.71 158.673 172.356 157.68 172.635 156.561Z" fill="#1355FF"/>
<path d="M133.407 123.9C134.094 122.871 135.207 122.4 135.915 122.877C136.623 123.354 136.623 124.554 135.939 125.577C135.831 125.734 135.711 125.883 135.579 126.021L140.661 136.752C141.471 136.212 142.362 136.077 143.004 136.503C143.21 136.653 143.38 136.846 143.504 137.069C143.627 137.292 143.7 137.539 143.718 137.793L147.192 136.623L150.228 135.6L151.218 135.276C151.343 134.903 151.517 134.548 151.734 134.22C152.697 132.771 154.272 132.12 155.253 132.78C156.234 133.44 156.246 135.105 155.31 136.542L161.1 144.447C162.363 143.412 163.848 143.091 164.877 143.775C166.278 144.708 166.299 147.141 164.925 149.205C164.868 149.289 164.805 149.355 164.748 149.433L168.6 154.701L168.636 154.752C168.833 155.049 168.904 155.412 168.833 155.762C168.762 156.111 168.555 156.418 168.258 156.615C167.961 156.812 167.598 156.883 167.248 156.812C166.899 156.741 166.592 156.534 166.395 156.237L162.975 151.074C161.892 151.701 160.74 151.821 159.897 151.26C158.559 150.36 158.493 148.116 159.687 146.115L154.146 137.751C153.327 138.306 152.424 138.447 151.776 138.018C151.416 137.762 151.17 137.376 151.092 136.941L150.678 137.055L147.591 137.898L143.637 138.966C143.514 139.44 143.311 139.889 143.037 140.295C142.074 141.741 140.499 142.395 139.518 141.735C138.537 141.075 138.522 139.38 139.485 137.931C139.626 137.718 139.785 137.518 139.959 137.331L135.12 126.399C134.538 126.798 133.893 126.9 133.431 126.591C132.735 126.129 132.723 124.917 133.407 123.9Z" fill="#BCBCBC"/>
<path d="M170.22 124.476H177.72C178.063 124.475 178.398 124.375 178.685 124.188C178.972 124.001 179.199 123.734 179.337 123.42C179.378 123.325 179.401 123.223 179.403 123.12C179.402 122.915 179.32 122.719 179.175 122.575C179.03 122.43 178.834 122.349 178.629 122.349H170.658C171.033 122.976 170.844 123.855 170.22 124.476Z" fill="#BCBCBC"/>
<path d="M165.372 123.708C165.373 123.912 165.454 124.107 165.599 124.251C165.743 124.395 165.939 124.476 166.143 124.476H170.22C170.844 123.855 171.033 122.976 170.658 122.343H167.058C166.715 122.343 166.38 122.442 166.093 122.629C165.806 122.816 165.579 123.083 165.441 123.396C165.397 123.494 165.373 123.6 165.372 123.708Z" fill="#1355FF"/>
<path d="M167.247 124.476C167.269 124.517 167.294 124.556 167.322 124.593C167.856 125.325 169.017 125.394 169.917 124.737C170.024 124.658 170.124 124.571 170.217 124.476C170.841 123.855 171.03 122.976 170.655 122.343C170.635 122.301 170.611 122.262 170.583 122.226C170.052 121.491 168.891 121.428 167.991 122.079C167.885 122.159 167.784 122.248 167.691 122.343C167.067 122.967 166.878 123.84 167.247 124.476Z" fill="white"/>
<path d="M163.5 128.415C163.502 128.619 163.584 128.815 163.729 128.958C163.874 129.102 164.07 129.183 164.274 129.183H172.143C171.762 128.547 171.951 127.683 172.575 127.05H165.174C164.831 127.05 164.495 127.15 164.207 127.338C163.92 127.525 163.693 127.792 163.554 128.106C163.516 128.205 163.498 128.309 163.5 128.415Z" fill="#1355FF"/>
<path d="M172.131 129.183H175.833C176.175 129.183 176.51 129.084 176.797 128.897C177.084 128.711 177.311 128.446 177.45 128.133C177.492 128.038 177.516 127.937 177.519 127.833C177.519 127.732 177.5 127.631 177.461 127.537C177.423 127.444 177.366 127.359 177.294 127.287C177.222 127.215 177.137 127.158 177.044 127.12C176.95 127.081 176.849 127.062 176.748 127.062H172.563C171.939 127.674 171.75 128.547 172.131 129.183Z" fill="#BCBCBC"/>
<path d="M172.131 129.183C172.148 129.224 172.17 129.264 172.197 129.3C172.728 130.035 173.889 130.101 174.789 129.447C174.895 129.367 174.996 129.278 175.089 129.183C175.707 128.559 175.896 127.683 175.527 127.05C175.505 127.01 175.481 126.971 175.455 126.933C174.918 126.201 173.757 126.135 172.857 126.792C172.75 126.87 172.65 126.956 172.557 127.05C171.939 127.674 171.75 128.547 172.131 129.183Z" fill="white"/>
<path d="M169.5 133.857H174.21C174.553 133.857 174.888 133.757 175.176 133.57C175.463 133.383 175.69 133.117 175.83 132.804C175.871 132.709 175.893 132.607 175.896 132.504C175.896 132.298 175.815 132.101 175.669 131.956C175.524 131.81 175.328 131.728 175.122 131.727H169.947C170.319 132.36 170.127 133.233 169.5 133.857Z" fill="#1355FF"/>
<path d="M161.874 133.092C161.874 133.193 161.895 133.293 161.934 133.386C161.973 133.479 162.029 133.563 162.101 133.634C162.173 133.705 162.258 133.761 162.351 133.8C162.444 133.838 162.544 133.857 162.645 133.857H169.5C170.118 133.233 170.31 132.357 169.938 131.721H163.56C163.217 131.721 162.88 131.821 162.593 132.009C162.306 132.197 162.08 132.465 161.943 132.78C161.899 132.878 161.875 132.984 161.874 133.092Z" fill="#BCBCBC"/>
<path d="M166.536 133.857C166.558 133.898 166.583 133.937 166.611 133.974C167.142 134.709 168.3 134.772 169.203 134.118C169.309 134.039 169.41 133.952 169.503 133.857C170.121 133.233 170.313 132.357 169.941 131.721C169.921 131.679 169.897 131.64 169.869 131.604C169.332 130.875 168.174 130.812 167.271 131.463C167.165 131.542 167.065 131.628 166.971 131.721C166.353 132.345 166.161 133.224 166.536 133.857Z" fill="white"/>
<path d="M139.053 155.901H143.766C144.108 155.9 144.443 155.801 144.73 155.614C145.017 155.427 145.244 155.161 145.383 154.848C145.424 154.753 145.446 154.651 145.449 154.548C145.449 154.343 145.367 154.146 145.222 154.001C145.077 153.856 144.88 153.774 144.675 153.774H139.5C139.863 154.404 139.671 155.277 139.053 155.901Z" fill="#1355FF"/>
<path d="M120.351 155.136C120.351 155.237 120.372 155.337 120.411 155.43C120.45 155.523 120.507 155.607 120.578 155.678C120.65 155.749 120.735 155.805 120.828 155.844C120.921 155.882 121.021 155.901 121.122 155.901H139.053C139.671 155.277 139.863 154.401 139.491 153.768H122.037C121.694 153.768 121.358 153.868 121.071 154.055C120.784 154.243 120.558 154.51 120.42 154.824C120.377 154.923 120.354 155.029 120.351 155.136Z" fill="#BCBCBC"/>
<path d="M136.08 155.901C136.102 155.942 136.127 155.981 136.155 156.018C136.686 156.753 137.844 156.816 138.747 156.165C138.853 156.084 138.953 155.996 139.047 155.901C139.665 155.277 139.857 154.401 139.485 153.768C139.465 153.726 139.441 153.687 139.413 153.651C138.876 152.919 137.718 152.856 136.815 153.507C136.708 153.586 136.608 153.673 136.515 153.768C135.9 154.389 135.705 155.268 136.08 155.901Z" fill="white"/>
<path d="M20.4539 167.454C20.4539 167.454 10.5539 212.175 36.0209 221.517C61.4879 230.859 130.281 222.084 101.691 189.816C73.1009 157.548 20.4539 167.454 20.4539 167.454Z" fill="#2E2E2E"/>
<path d="M144.024 68.1C147.485 67.3782 150.995 66.9099 154.524 66.699C154.599 66.699 154.662 66.699 154.728 66.699C157.047 66.546 161.109 66.48 163.428 66.456" stroke="#282828" stroke-width="3" stroke-miterlimit="10"/>
<path d="M126.867 75.501C126.843 75.516 126.828 75.534 126.804 75.549" stroke="#282828" stroke-width="4.05" stroke-miterlimit="10"/>
<path d="M166.335 56.7C164.565 57.63 162.531 57 161.751 55.416" stroke="#282828" stroke-width="3" stroke-miterlimit="10"/>
<path d="M156.06 34.095C155.98 35.4714 156.333 36.8382 157.07 38.0036C157.806 39.1691 158.889 40.0745 160.167 40.593C160.437 40.0972 160.824 39.675 161.295 39.363C163.284 38.076 162.93 41.514 168.33 40.608C175.815 39.345 177.723 41.952 177.723 41.952C177.888 42.18 177.423 43.668 177.357 43.941C177.057 45.54 176.757 47.13 176.484 48.741C176.308 49.717 176.13 50.687 175.95 51.651C176.086 51.5191 176.23 51.3958 176.382 51.282C177.612 49.362 179.415 47.208 181.38 48.966C181.774 49.3322 182.077 49.7866 182.262 50.292C183.162 52.737 181.44 54.309 179.427 55.251C178.896 55.5723 178.332 55.8348 177.744 56.034C177.843 56.652 178.254 59.115 178.254 59.121C178.296 59.373 183.294 56.292 183.711 55.917C184.464 54.9208 185.045 53.8054 185.43 52.617C186.984 47.715 186.72 41.379 183.591 37.347C182.814 36.348 183.333 35.772 183.558 34.8C183.569 34.7477 183.564 34.6934 183.543 34.6441C183.523 34.5947 183.488 34.5527 183.443 34.5233C183.399 34.4939 183.346 34.4785 183.293 34.4792C183.24 34.4799 183.188 34.4965 183.144 34.527C181.458 35.586 178.407 34.503 178.407 34.503C168.507 28.557 163.434 32.235 161.007 32.421C160.023 32.4886 159.045 32.2106 158.244 31.635C158.103 31.9134 157.889 32.1481 157.625 32.3141C157.36 32.48 157.056 32.5709 156.744 32.577L156.648 33.093C156.574 33.4852 156.366 33.8395 156.06 34.095Z" fill="#1355FF"/>
<path d="M160.173 40.605C158.895 40.0865 157.812 39.181 157.076 38.0156C156.339 36.8502 155.986 35.4834 156.066 34.107V34.107C156.095 33.5783 156.171 33.0532 156.294 32.538L156.381 32.556C156.499 32.5826 156.62 32.5917 156.741 32.583C157.053 32.5769 157.357 32.486 157.622 32.3201C157.886 32.1541 158.1 31.9194 158.241 31.641C158.324 31.486 158.381 31.319 158.412 31.146L158.874 28.635C158.874 28.635 160.374 30.666 162.774 30.477C165.174 30.288 170.247 26.61 180.174 32.559C180.174 32.559 182.556 33.438 184.242 32.379C184.286 32.3485 184.338 32.3318 184.391 32.3312C184.444 32.3305 184.497 32.3459 184.541 32.3753C184.586 32.4047 184.621 32.4467 184.641 32.4961C184.662 32.5454 184.667 32.5997 184.656 32.652C184.431 33.621 184.581 34.404 185.358 35.403C188.487 39.435 188.751 45.771 187.197 50.673C186.517 52.7044 185.308 54.5184 183.696 55.929C183.279 56.304 178.281 59.385 178.239 59.133C178.239 59.133 177.828 56.664 177.729 56.046L177.705 55.905L177.846 55.863C178.381 55.6975 178.904 55.4971 179.412 55.263C181.425 54.321 183.156 52.749 182.247 50.304C182.062 49.7986 181.759 49.3442 181.365 48.978C179.4 47.22 177.597 49.374 176.367 51.294C176.129 51.6585 175.934 52.049 175.785 52.458C175.833 52.194 175.881 51.936 175.932 51.672C176.112 50.706 176.29 49.736 176.466 48.762C176.766 47.16 177.045 45.57 177.339 43.962C177.393 43.689 177.87 42.201 177.705 41.973C177.705 41.973 175.797 39.366 168.312 40.629C162.912 41.529 163.266 38.097 161.277 39.384C160.806 39.696 160.419 40.1182 160.149 40.614C160.065 40.7755 159.991 40.9418 159.927 41.112C159.916 41.1332 159.907 41.1553 159.9 41.178C159.765 41.55 159.642 41.925 159.522 42.291C158.4 45.858 157.659 49.71 158.055 53.457C158.538 57.999 161.847 63.339 167.112 62.886C168.769 62.6919 170.384 62.2384 171.9 61.542" stroke="#282828" stroke-width="3" stroke-miterlimit="10"/>
<path d="M160.747 50.2854C161.263 50.2709 161.666 49.7543 161.648 49.1315C161.631 48.5088 161.199 48.0158 160.684 48.0304C160.169 48.0449 159.765 48.5616 159.783 49.1843C159.801 49.807 160.232 50.3 160.747 50.2854Z" fill="#282828"/>
<path d="M167.797 52.1794C168.313 52.1648 168.716 51.6482 168.698 51.0255C168.681 50.4027 168.249 49.9097 167.734 49.9243C167.219 49.9389 166.815 50.4555 166.833 51.0782C166.85 51.701 167.282 52.194 167.797 52.1794Z" fill="#282828"/>
<path d="M164.754 52.596C164.754 52.596 162.027 53.196 162.303 51.798C162.387 51.36 163.071 47.058 163.071 47.058C163.071 47.058 161.799 44.496 158.472 45.093" stroke="#282828" stroke-width="2" stroke-miterlimit="10"/>
<path d="M165.978 46.674C165.978 46.674 170.301 45.939 171.957 49.392" stroke="#282828" stroke-width="3" stroke-miterlimit="10"/>
<path d="M163.476 66.42C160.071 68.22 158.253 72.552 159.678 75.687C162.054 80.91 168.309 82.446 173.478 80.937C179.226 79.257 183.45 73.959 183.198 67.884" stroke="#282828" stroke-width="3" stroke-miterlimit="10"/>
<path d="M184.092 166.017C193.965 143.073 197.55 102.576 197.55 102.576V159.078C197.55 159.989 197.729 160.892 198.077 161.734C198.426 162.576 198.937 163.341 199.582 163.985C200.226 164.63 200.991 165.141 201.833 165.49C202.675 165.838 203.578 166.017 204.489 166.017H226.389C227.21 166.03 228.007 165.739 228.626 165.2C229.246 164.662 229.645 163.913 229.746 163.098C229.79 162.649 229.739 162.196 229.598 161.768C229.456 161.34 229.226 160.946 228.923 160.612C228.619 160.279 228.249 160.012 227.837 159.83C227.424 159.648 226.978 159.554 226.527 159.555H217.557C217.199 159.554 216.847 159.471 216.526 159.313C216.205 159.155 215.924 158.926 215.706 158.643C215.487 158.36 215.336 158.03 215.263 157.68C215.191 157.33 215.2 156.967 215.289 156.621C220.689 135.321 224.028 110.319 216.999 88.194C215.547 83.628 212.418 79.56 208.722 76.416C204.48 72.792 199.251 71.13 193.893 69.9C190.359 69.09 186.794 68.42 183.198 67.89C183.187 67.8937 183.176 67.8937 183.165 67.89C183.141 67.89 183.117 67.89 183.102 67.89H183.078H183.045H182.997" stroke="#282828" stroke-width="3" stroke-miterlimit="10"/>
<path d="M180.936 57.696L180.54 64.863C180.502 65.5634 180.722 66.2534 181.158 66.8028C181.594 67.3521 182.216 67.7229 182.907 67.845H182.997C183.013 67.8406 183.029 67.8406 183.045 67.845H183.06H183.102" stroke="#282828" stroke-width="4.05" stroke-miterlimit="10"/>
<path d="M183.165 67.878H183.102H183.078H183.06H183.045H182.997H182.907C182.216 67.7559 181.594 67.3852 181.158 66.8358C180.722 66.2864 180.502 65.5964 180.54 64.896L180.936 57.729" stroke="#282828" stroke-width="3" stroke-miterlimit="10"/>
<path d="M164.043 62.439C163.848 62.361 164.043 70.443 159.222 73.953" stroke="#282828" stroke-width="3" stroke-miterlimit="10"/>
<path d="M99.498 166.02H84.054" stroke="#282828" stroke-width="3" stroke-miterlimit="10"/>
<path d="M250.377 166.02H123.543" stroke="#282828" stroke-width="3" stroke-miterlimit="10"/>
<path d="M54.825 90.141C54.9739 93.1667 54.8655 96.1996 54.501 99.207C54.033 102.741 50.766 107.232 50.058 110.727C49.047 115.755 50.577 120.951 52.677 125.619C55.215 131.262 59.214 136.938 58.824 143.4C58.6242 146.214 57.7868 148.946 56.3752 151.389C54.9635 153.832 53.0146 155.922 50.676 157.5C47.4728 159.643 43.8139 161.009 39.99 161.49C39.456 161.553 38.913 161.604 38.37 161.619C38.07 161.619 37.77 161.586 37.47 161.562C27.3 160.701 16.869 152.943 16.893 142.143C16.893 135.243 22.137 129.843 23.022 123.147C23.565 119.052 22.365 114.798 23.475 110.823C25.275 104.475 32.232 101.013 35.28 95.169C37.524 90.855 37.89 85.821 39.666 81.297C42.138 74.997 46.086 67.797 51.486 67.197C53.053 67.3746 54.5677 67.8686 55.938 68.649C59.286 70.449 60.138 70.563 60.819 72.168C61.515 73.845 60.477 75.636 58.743 76.173C55.815 77.1 54.552 83.049 54.825 90.141Z" fill="#1355FF"/>
<path d="M57.768 69.624C66.558 67.077 72.144 70.824 76.14 75.144C80.136 79.464 79.95 84.369 79.95 84.369" stroke="#282828" stroke-width="3" stroke-miterlimit="10"/>
<path d="M85.032 154.116C84.8992 160.983 84.0292 167.816 82.437 174.498" stroke="#282828" stroke-width="3" stroke-miterlimit="10"/>
<path d="M106.875 210.042C103.656 215.58 96.0211 219.513 86.6791 221.961C70.1011 226.305 48.1531 225.966 36.0271 221.514C10.5451 212.175 20.4511 167.454 20.4511 167.454C20.4511 167.454 64.5241 159.159 93.9121 182.454C96.7196 184.673 99.3257 187.136 101.7 189.813C104.949 193.488 106.944 196.851 107.886 199.923C109.041 203.751 108.579 207.123 106.875 210.042Z" stroke="#282828" stroke-width="3" stroke-miterlimit="10"/>
<path d="M89.9821 221.205C89.9821 221.205 74.541 264.066 100.482 275.013C126.423 285.96 5.22004 287.418 31.974 275.013C58.728 262.608 43.35 223.824 43.35 223.824" stroke="#282828" stroke-width="3" stroke-miterlimit="10"/>
<path d="M121.392 75.549C121.071 74.568 121.203 71.157 121.308 69.231C121.328 68.8673 121.489 68.5258 121.757 68.2789C122.025 68.0319 122.378 67.8989 122.742 67.908L153.561 68.178C154.081 68.1827 154.577 68.3925 154.943 68.7616C155.309 69.1307 155.514 69.6294 155.514 70.149V93.276C155.514 93.5356 155.463 93.7926 155.363 94.0323C155.263 94.2721 155.118 94.4897 154.934 94.6729C154.75 94.856 154.531 95.001 154.291 95.0996C154.051 95.1981 153.794 95.2482 153.534 95.247L123.501 95.136C123.066 95.1182 122.655 94.9327 122.353 94.6184C122.052 94.3041 121.884 93.8854 121.884 93.45V91.686C124.02 92.682 128.058 92.988 128.058 92.988C129.495 92.949 131.766 92.775 133.011 92.061C134.151 91.407 135.591 90.468 135.786 89.046C135.861 88.496 135.716 87.9386 135.381 87.4957C135.047 87.0527 134.551 86.7601 134.001 86.682C133.671 86.6161 133.329 86.6399 133.011 86.751" stroke="#282828" stroke-width="3" stroke-miterlimit="10"/>
<path d="M151.47 139.638C151.456 140.051 151.317 140.449 151.071 140.781C150.366 141.648 148.971 141.477 148.023 141.21C144.036 140.076 141.642 144.396 140.136 147.306C136.332 154.662 130.626 161.496 123.507 166.02C123.045 166.32 122.574 166.602 122.097 166.878C115.14 170.892 106.125 170.145 99.396 165.978L108 144.843L108.852 145.524C114.048 149.625 120.444 147.324 124.872 143.277C126.101 142.157 127.185 140.889 128.1 139.5C129.624 137.157 130.929 134.628 133.014 132.723C135.9 130.086 140.124 129.57 143.772 130.686C147.42 131.802 151.8 135.39 151.47 139.638Z" fill="white"/>
<path d="M151.434 138.141C151.434 138.141 150.456 132.963 141.639 137.004" stroke="#282828" stroke-width="3" stroke-miterlimit="10"/>
<path d="M146.529 131.925C146.529 131.925 141.033 130.167 137.973 134.367" stroke="#282828" stroke-width="3" stroke-miterlimit="10"/>
<path d="M35.5861 161.571C37.0535 161.702 38.5307 161.678 39.9931 161.499C43.8159 161.012 47.4731 159.643 50.6761 157.5C53.0147 155.922 54.9636 153.832 56.3752 151.389C57.7869 148.946 58.6243 146.214 58.8241 143.4C59.2141 136.935 55.2241 131.259 52.6771 125.616C50.5771 120.945 49.0471 115.749 50.0611 110.727C50.7661 107.229 54.0271 102.741 54.4981 99.204C54.8645 96.1968 54.9749 93.1639 54.8281 90.138C54.5551 83.043 55.8151 77.088 58.7431 76.182C60.4771 75.645 61.5181 73.851 60.8191 72.177C60.1501 70.569 59.2891 70.473 55.9381 68.652C47.2021 63.9 41.1271 72.759 37.7731 81.3C35.9941 85.827 35.6341 90.855 33.3871 95.169C30.3391 101.016 23.3671 104.469 21.5851 110.829C20.4721 114.801 21.6721 119.058 21.1321 123.147C20.2501 129.84 15.0151 135.237 15.0001 142.143C14.9761 152.94 25.4191 160.704 35.5861 161.571Z" stroke="#282828" stroke-width="3" stroke-miterlimit="10"/>
<path d="M106.875 210.042C106.122 215.4 105 221.547 103.764 227.7C100.26 245.139 95.8019 262.683 95.8019 262.683" stroke="#282828" stroke-width="3" stroke-miterlimit="10"/>
<path d="M107.874 199.923C107.889 199.269 107.898 198.669 107.874 198.099C107.607 185.799 98.763 182.859 94.959 182.154C94.3914 182.043 93.8172 181.97 93.24 181.935" stroke="#282828" stroke-width="3" stroke-miterlimit="10"/>
<path d="M97.122 257.364C97.6116 257.064 98.1723 256.9 98.7463 256.889C99.3202 256.878 99.8868 257.021 100.387 257.302C100.888 257.582 101.305 257.992 101.595 258.487C101.884 258.983 102.037 259.547 102.036 260.121C102.036 260.163 102.036 260.214 102.036 260.274C101.988 261.755 101.598 263.206 100.896 264.511C100.193 265.816 99.1986 266.941 97.989 267.798L93.819 270.765" stroke="#282828" stroke-width="3" stroke-miterlimit="10"/>
<path d="M49.7519 114.693C50.3339 114.456 50.9279 114.246 51.5279 114.051C52.7909 111.717 52.5959 106.608 52.4759 104.751L53.7389 101.904C57.2249 104.046 61.8389 103.242 66.1199 101.751C66.7211 101.541 67.3057 101.286 67.8689 100.989C70.5869 99.741 74.3969 96.789 72.6869 95.265C70.9769 93.741 71.0969 90.807 72.1919 89.007C72.5249 88.455 73.1159 87.912 73.7309 88.083C74.1449 88.197 74.4119 88.584 74.6489 88.941C74.9489 89.388 75.2489 89.817 75.5489 90.255C75.6539 90.402 75.8249 90.555 75.9869 90.489C76.0555 90.4438 76.1088 90.379 76.1399 90.303C76.6679 89.217 76.5689 87.66 76.6589 86.469C76.7639 85.05 76.8449 83.622 76.8869 82.197C76.9109 81.411 77.0729 80.568 77.9159 80.292C78.0861 80.2263 78.2689 80.2003 78.4507 80.2159C78.6324 80.2315 78.8081 80.2883 78.9646 80.382C79.1211 80.4757 79.2541 80.6039 79.3536 80.7567C79.4531 80.9095 79.5165 81.083 79.5389 81.264C80.1525 84.7118 80.2425 88.2324 79.8059 91.707C79.3919 95.346 78.6449 99.207 76.3109 102.141C74.9812 103.833 73.1995 105.115 71.1719 105.837C69.2099 106.518 69.2729 108.885 69.2729 110.961V114.408C75.3059 115.632 80.9729 117.108 85.6589 121.308C88.758 124.141 91.6739 127.168 94.3889 130.371C102.936 140.4 104.784 142.281 108.9 145.524C114.096 149.625 120.495 147.324 124.92 143.277C126.147 142.157 127.229 140.888 128.142 139.5C129.666 137.157 130.971 134.628 133.053 132.723C135.942 130.086 140.166 129.57 143.814 130.686C147.462 131.802 151.848 135.39 151.5 139.638C151.485 140.05 151.347 140.448 151.104 140.781C150.399 141.648 149.004 141.477 148.056 141.21C144.066 140.076 141.675 144.396 140.166 147.306C136.365 154.662 130.656 161.496 123.537 166.02C123.075 166.32 122.607 166.602 122.127 166.878C114.174 171.468 103.512 169.83 96.6719 163.983L80.1719 149.976" stroke="#282828" stroke-width="3" stroke-miterlimit="10"/>
<path d="M51.528 114.051C51.528 114.051 59.409 111.615 69.273 114.417" stroke="#282828" stroke-width="3" stroke-miterlimit="10"/>
<path d="M121.884 91.686C121.884 91.686 121.944 101.886 124.377 105.813" stroke="#282828" stroke-width="3" stroke-miterlimit="10"/>
<path d="M129.879 45C128.007 48.195 128.094 50.463 128.58 54.144C128.62 54.4575 128.571 54.776 128.438 55.0627C128.305 55.3495 128.094 55.5928 127.828 55.7646C127.563 55.9365 127.255 56.0298 126.939 56.034C126.623 56.0381 126.312 55.9528 126.042 55.788C115.242 49.572 105.135 54.489 92.2411 51.444C87.5071 50.331 81.6061 48.03 77.5591 44.325C76.2165 42.3311 75.4999 39.9818 75.5011 37.578C75.5011 27.501 89.2681 19.329 106.242 19.329C117.123 19.329 126.681 22.686 132.147 27.744C132.147 27.744 132.147 27.744 132.162 27.762C133.534 29.7336 134.282 32.0715 134.31 34.473C134.31 38.1 131.622 42 129.879 45Z" fill="#BCBCBC"/>
<path d="M134.262 34.479V34.734C134.199 38.265 132.432 41.547 130.335 44.388C128.931 46.29 127.266 48.399 127.662 50.73C127.836 51.756 128.409 52.689 128.562 53.73C128.715 54.771 128.157 56.046 127.116 56.1C126.456 56.133 125.892 55.662 125.37 55.257C122.271 52.857 118.245 51.957 114.33 51.801C110.415 51.645 106.506 52.158 102.588 52.269C96.9421 52.431 91.2061 51.726 85.9891 49.569C81.3001 47.613 77.0251 44.433 74.2111 40.2C71.4481 36.027 73.0831 29.973 76.0291 26.346C78.7951 22.944 82.7971 20.766 86.9041 19.233C97.9471 15.108 110.553 15.207 121.446 19.722C124.68 21.048 127.8 22.8 130.23 25.326C132.6 27.789 134.241 31.071 134.262 34.479Z" stroke="#282828" stroke-width="3" stroke-miterlimit="10"/>
<path d="M88.9439 38.493C91.2867 38.493 93.1859 36.5938 93.1859 34.251C93.1859 31.9082 91.2867 30.009 88.9439 30.009C86.6011 30.009 84.7019 31.9082 84.7019 34.251C84.7019 36.5938 86.6011 38.493 88.9439 38.493Z" fill="white"/>
<path d="M102.66 38.493C105.003 38.493 106.902 36.5938 106.902 34.251C106.902 31.9082 105.003 30.009 102.66 30.009C100.317 30.009 98.418 31.9082 98.418 34.251C98.418 36.5938 100.317 38.493 102.66 38.493Z" fill="white"/>
<path d="M116.643 38.493C118.986 38.493 120.885 36.5938 120.885 34.251C120.885 31.9082 118.986 30.009 116.643 30.009C114.3 30.009 112.401 31.9082 112.401 34.251C112.401 36.5938 114.3 38.493 116.643 38.493Z" fill="white"/>
<g opacity="0.54">
<path opacity="0.54" d="M198.156 212.1L196.431 237C195.642 238.503 194.657 239.894 193.5 241.137C193.374 241.092 193.248 241.044 193.125 240.987C192.894 240.909 192.666 240.816 192.45 240.726C188.955 239.193 186.3 236.337 185.526 233.1C184.827 230.265 185.457 227.202 184.107 224.538C182.46 221.256 177.981 219.198 177.432 215.496C176.916 212.031 180.036 208.854 179.532 205.458C178.932 201.618 174.237 199.341 173.358 195.591C172.809 193.26 173.301 190.584 173.094 188.184C172.866 185.499 172.415 182.838 171.747 180.228C178.698 179.724 185.772 183.555 188.025 189.042C189.864 193.542 188.757 198.783 191.625 202.875C193.191 205.092 195.798 206.751 197.148 209.07C197.564 209.794 197.868 210.577 198.048 211.392C198.048 211.449 198.048 211.506 198.069 211.551C198.069 211.644 198.093 211.71 198.105 211.779C198.135 211.986 198.156 212.1 198.156 212.1Z" fill="#1355FF"/>
<path opacity="0.54" d="M198.168 212.079C198.168 212.079 198.147 211.977 198.123 211.779C198.144 211.858 198.159 211.938 198.168 212.019C198.172 212.028 198.175 212.039 198.175 212.049C198.175 212.059 198.172 212.07 198.168 212.079Z" fill="#1355FF"/>
</g>
<path d="M221.133 202.362C220.233 205.596 215.304 207.561 214.71 210.876C214.185 213.816 217.431 216.558 216.894 219.543C216.321 222.744 211.656 224.514 209.943 227.343C208.548 229.641 209.199 232.284 208.479 234.729C207.645 237.507 204.879 239.988 201.231 241.302C201.003 241.383 200.787 241.461 200.556 241.53C200.43 241.566 200.292 241.611 200.166 241.644C198.966 240.651 197.571 238.902 196.44 237.015L198.156 212.1C199.494 210.966 201.024 209.928 202.089 208.668C203.244 207.309 203.781 205.824 204.123 204.267H204.159V204.096C204.66 201.639 204.705 199.065 205.86 196.734C208.203 191.991 215.556 188.685 222.792 189.12C222.109 191.36 221.642 193.661 221.397 195.99C221.19 198.051 221.7 200.361 221.133 202.362Z" fill="#1355FF"/>
<path d="M204.171 204.075V204.246H204.135L204.171 204.075Z" fill="#1355FF"/>
<path d="M204.171 204.075L204.135 204.246C203.793 205.803 203.256 207.288 202.101 208.647C201.036 209.907 199.506 210.945 198.168 212.079C198.173 212.063 198.173 212.047 198.168 212.031C198.158 211.95 198.143 211.87 198.123 211.791C198.123 211.722 198.099 211.656 198.087 211.563C198.087 211.518 198.087 211.461 198.066 211.404C197.886 210.589 197.582 209.806 197.166 209.082C195.816 206.763 193.209 205.104 191.643 202.887C191.643 202.887 192.351 191.202 198.33 187.647C204 184.287 204.171 202.131 204.171 204.075Z" fill="#1355FF"/>
<path d="M204.171 204.075V204.246H204.135L204.171 204.075Z" fill="#1355FF"/>
<path d="M198.156 212.031V212.1C198.156 212.1 198.135 211.998 198.111 211.8C198.131 211.876 198.146 211.953 198.156 212.031Z" fill="#1355FF"/>
<path d="M197.622 212.1C198.954 210.966 200.502 209.913 201.57 208.656C204.57 205.119 203.412 200.598 205.335 196.719C207.675 191.982 215.034 188.679 222.267 189.111C221.58 191.35 221.112 193.651 220.869 195.981C220.653 198.057 221.169 200.364 220.602 202.374C219.681 205.608 214.77 207.57 214.173 210.885C213.642 213.822 216.897 216.564 216.36 219.546C215.787 222.75 211.125 224.52 209.409 227.346C208.008 229.647 208.665 232.284 207.939 234.735C207.06 237.69 204 240.3 200.013 241.533C199.887 241.575 199.749 241.62 199.62 241.653C198.42 240.66 197.025 238.911 195.891 237.021" stroke="#282828" stroke-width="3" stroke-miterlimit="10"/>
<path d="M217.851 192.822C207.066 204.429 201.993 228.9 200.019 241.536C199.857 242.601 199.719 243.576 199.587 244.455" stroke="#282828" stroke-width="3" stroke-miterlimit="10"/>
<path d="M218.847 251.571L213.9 280.848C213.783 281.65 213.385 282.384 212.777 282.921C212.17 283.457 211.392 283.761 210.582 283.779H184.638C183.82 283.76 183.035 283.45 182.426 282.904C181.816 282.357 181.422 281.611 181.314 280.8L176.739 251.568L218.847 251.571Z" stroke="#282828" stroke-width="3" stroke-miterlimit="10"/>
<path d="M223.56 248.301C223.516 249.169 223.145 249.989 222.522 250.595C221.898 251.202 221.069 251.55 220.2 251.571H175.467C174.607 251.55 173.786 251.209 173.166 250.614C172.545 250.019 172.17 249.213 172.113 248.355V248.355C171.924 246.255 173.478 244.455 175.467 244.455H220.2C222.171 244.458 223.719 246.231 223.56 248.301Z" stroke="#282828" stroke-width="3" stroke-miterlimit="10"/>
<path d="M192.969 241.131C194.889 239.226 197.241 234.978 198.282 231.51C199.14 228.651 197.631 225.708 197.283 222.774C196.743 218.181 199.023 213.243 196.62 209.079C195.279 206.757 192.672 205.107 191.106 202.884C188.223 198.789 189.33 193.551 187.488 189.06C185.235 183.567 178.164 179.736 171.216 180.246C171.88 182.857 172.33 185.518 172.563 188.202C172.77 190.602 172.263 193.278 172.821 195.606C173.7 199.356 178.416 201.627 178.995 205.47C179.505 208.866 176.382 212.046 176.895 215.505C177.447 219.213 181.92 221.262 183.573 224.55C184.917 227.217 184.287 230.277 184.983 233.109C185.856 236.649 188.949 239.76 192.969 241.131Z" stroke="#282828" stroke-width="3" stroke-miterlimit="10"/>
<path d="M175.458 184.548C185.811 198 190.683 226.347 192.6 240.981C192.762 242.25 192.9 243.414 193.023 244.455" stroke="#282828" stroke-width="3" stroke-miterlimit="10"/>
<path d="M191.1 202.884C191.1 202.884 191.811 191.199 197.787 187.647C203.763 184.095 203.637 204 203.637 204" stroke="#282828" stroke-width="3" stroke-miterlimit="10"/>
<path d="M197.622 212.1C197.622 212.1 196.401 205.416 198.543 198.843" stroke="#282828" stroke-width="3" stroke-miterlimit="10"/>
</svg>
