<svg width="300" height="300" viewBox="0 0 300 300" fill="none" xmlns="http://www.w3.org/2000/svg">
<path d="M62.961 114.9C62.121 116.304 60.363 116.898 58.851 117.201C56.919 117.597 54.921 117.702 52.965 117.876L51.828 118.155C51.6128 118.221 51.4129 118.33 51.2396 118.473C51.0663 118.617 50.9232 118.794 50.8184 118.993C50.7136 119.192 50.6492 119.411 50.6289 119.635C50.6085 119.859 50.6327 120.085 50.7 120.3C51.4035 122.721 52.3713 125.057 53.586 127.266L51.786 129.066C51.276 128.376 51.252 127.167 50.568 127.284C49.911 126.627 49.131 126.306 48.324 127.185C46.746 128.91 47.001 132.495 49.32 133.485L48.801 136.068C48.622 136.971 48.1356 137.784 47.4245 138.369C46.7134 138.954 45.8216 139.274 44.901 139.275L45.3 136.218C42.6 137.583 39.537 134.631 39.75 132.198C39.888 130.53 39.51 129.378 38.277 128.169C38.196 128.088 38.691 127.788 38.616 127.707C38.268 126.654 38.22 125.424 38.565 124.728C39.165 123.486 40.932 122.76 40.119 121.404C39.7621 120.813 39.5019 120.169 39.348 119.496C39.1848 118.604 39.2146 117.687 39.4356 116.807C39.6566 115.927 40.0635 115.105 40.629 114.396C41.829 112.956 43.779 113.343 45.372 112.833C47.313 112.233 48.21 110.154 50.241 109.512C51.252 109.191 52.188 109.338 53.199 109.569C54.054 109.767 54.9 109.989 55.74 110.253C56.58 110.517 57.318 110.736 58.14 110.49C59.226 110.19 60.063 109.176 61.248 109.167C61.8393 109.153 62.4181 109.338 62.892 109.692C63.768 111.267 63.774 113.553 62.961 114.9Z" fill="#1355FF"/>
<path d="M25.833 155.52C25.833 155.52 -6.82799 119.496 41.271 101.52C44.0601 100.497 46.967 99.8299 49.923 99.534C57.6 98.718 74.571 95.817 76.527 86.019" stroke="#BCBCBC" stroke-width="4.11" stroke-miterlimit="10"/>
<path d="M162.939 105.09V105.081" stroke="#BCBCBC" stroke-width="4.11" stroke-miterlimit="10"/>
<path d="M77.241 169.953V169.944" stroke="black" stroke-width="4.11" stroke-miterlimit="10"/>
<path d="M51.705 128.826C51.3853 128.273 51.0049 127.758 50.571 127.29C49.914 126.633 49.134 126.312 48.327 127.191C46.749 128.916 47.004 132.501 49.323 133.491L48.804 136.074C48.625 136.977 48.1386 137.79 47.4275 138.375C46.7164 138.96 45.8246 139.28 44.904 139.281" stroke="black" stroke-width="3" stroke-linecap="round" stroke-linejoin="round"/>
<path d="M43.452 150.711C43.584 149.709 43.911 147.078 44.226 144.57C44.526 142.245 44.793 140.007 44.898 139.269L45.3 136.218" stroke="black" stroke-width="3" stroke-linecap="round" stroke-linejoin="round"/>
<path d="M61.974 120.648C61.974 120.648 58.143 120.837 57.402 124.008" stroke="black" stroke-width="2" stroke-miterlimit="10"/>
<path d="M63.366 129.027C64.41 129 65.766 128.847 66.258 127.788L63.618 124.875C62.974 124.161 62.593 123.249 62.538 122.289C62.433 120.678 62.622 118.122 61.08 116.421" stroke="black" stroke-width="2" stroke-miterlimit="10"/>
<path d="M61.1085 124.994C61.5407 124.516 61.5622 123.831 61.1566 123.465C60.7509 123.098 60.0718 123.188 59.6396 123.666C59.2074 124.145 59.1859 124.829 59.5915 125.196C59.9971 125.563 60.6763 125.472 61.1085 124.994Z" fill="black"/>
<path d="M60.849 148.161L58.86 138.519" stroke="black" stroke-width="3" stroke-miterlimit="10"/>
<path d="M111.27 191.556L98.451 202.038C113.874 225.558 102.201 229.875 102.201 229.875C99.9368 230.308 97.6503 230.616 95.352 230.796C84.204 231.6 72.768 228.723 63.579 222.279C44.979 209.229 28.779 183.111 37.419 160.371C38.146 158.448 39.0342 156.589 40.074 154.815C40.97 153.273 42.1109 151.887 43.452 150.711C45.7992 148.656 48.6897 147.323 51.7763 146.871C54.8629 146.419 58.0144 146.868 60.852 148.164C61.9383 148.66 62.9657 149.276 63.915 150C68.772 153.717 73.188 159 76.995 164.544C80.3753 169.558 83.4171 174.791 86.1 180.21C86.841 181.689 87.513 183.087 88.107 184.368C93.492 182.19 98.007 178.491 102.207 174.495C97.128 183.975 111.27 191.556 111.27 191.556Z" fill="#353642"/>
<path d="M102.3 199.224C102.054 199.413 101.799 199.611 101.544 199.8" stroke="black" stroke-width="3" stroke-miterlimit="10"/>
<path d="M64.401 159.375C67.801 165.885 71.201 172.407 74.601 178.941C77.166 183.873 81.501 186.918 87.606 184.581C94.248 182.037 99.606 177.174 104.562 172.218C109.518 167.262 114.54 162.522 121.695 161.244C130.944 159.591 139.695 164.631 145.995 171C146.48 171.486 146.786 172.121 146.865 172.802C146.944 173.484 146.791 174.172 146.43 174.756C146.198 175.129 145.889 175.448 145.523 175.691C145.157 175.934 144.743 176.096 144.31 176.164C143.876 176.233 143.432 176.207 143.009 176.089C142.586 175.971 142.193 175.763 141.858 175.479C138.873 172.932 134.016 169.248 130.638 169.2" stroke="black" stroke-width="3" stroke-miterlimit="10"/>
<path d="M121.422 177.939C122.46 178.632 123.9 179.4 125.1 179.4" stroke="black" stroke-width="4.11" stroke-miterlimit="10"/>
<path d="M134.724 170.463C136.938 171.558 137.745 174.762 136.182 176.676C134.2 179.135 131.717 181.144 128.898 182.568C125.814 184.107 123.834 183.168 120.798 181.29" stroke="black" stroke-width="3" stroke-miterlimit="10"/>
<path d="M129.6 173.334C129.6 173.334 133.986 174.42 133.869 178.677C133.861 178.858 133.829 179.038 133.773 179.211" stroke="black" stroke-width="3" stroke-miterlimit="10"/>
<path d="M126.501 176.016C126.501 176.016 132.384 179.817 129.585 182.208" stroke="black" stroke-width="3" stroke-miterlimit="10"/>
<path d="M240.144 190.914C233.214 209.961 213.813 210.498 211.593 210.498C212.523 208.539 212.775 205.098 210.738 199.068C212.103 197.075 212.821 194.711 212.796 192.296C212.771 189.881 212.003 187.532 210.597 185.568C210.624 185.544 210.639 185.511 210.663 185.487C211.633 185.428 212.596 185.282 213.54 185.052C216.888 184.254 223.488 182.502 228.726 180.036C232.278 178.359 236.421 181.047 236.118 184.968C236.118 185.019 236.118 185.067 236.1 185.124C236.793 185.123 237.477 185.29 238.092 185.611C238.707 185.931 239.235 186.395 239.633 186.964C240.03 187.532 240.284 188.189 240.373 188.876C240.462 189.564 240.383 190.263 240.144 190.914Z" fill="#1355FF"/>
<path d="M151.215 235.587C148.881 239.592 145.248 243.003 141.738 245.979C129.381 256.437 113.238 261.747 97.038 261.954C80.784 261.747 64.581 256.419 52.167 246.054C12.942 213.3 20.031 174.627 26.376 156.72C26.5995 156.101 26.902 155.513 27.276 154.971C27.7721 154.245 28.4162 153.633 29.1659 153.173C29.9156 152.714 30.754 152.419 31.626 152.307C34.956 152.766 37.98 155.529 37.446 159.807C37.446 159.972 37.38 160.2 37.365 160.365C28.731 183.105 44.937 209.223 63.525 222.273C71.958 228.192 82.284 231.102 92.544 230.913H92.661C93.541 230.895 94.42 230.854 95.298 230.79C101.061 230.37 106.662 228.99 112.209 227.319C118.719 225.372 125.157 223.011 131.661 221.358C133.947 220.776 136.239 220.215 138.543 219.69C139.873 219.417 141.233 219.323 142.587 219.411C150.576 219.951 156.189 227.055 151.215 235.587Z" fill="#BCBCBC"/>
<path d="M153.189 235.587C150.855 239.592 147.219 243.003 143.709 245.979C130.86 256.863 113.907 262.179 97.029 261.954C80.775 261.747 64.572 256.419 52.158 246.054C12.942 213.3 20.031 174.627 26.376 156.72C26.5995 156.101 26.902 155.513 27.276 154.971C27.7721 154.245 28.4162 153.633 29.1659 153.173C29.9156 152.714 30.754 152.419 31.626 152.307C34.956 152.766 37.98 155.529 37.446 159.807C37.446 159.972 37.38 160.2 37.365 160.365C28.731 183.105 44.937 209.223 63.525 222.273C71.958 228.192 82.284 231.102 92.544 230.913H92.661C94.207 230.937 95.744 230.896 97.272 230.79C103.035 230.37 108.633 228.99 114.183 227.319C120.693 225.372 127.131 223.011 133.635 221.358C135.918 220.776 138.213 220.215 140.514 219.69C141.198 219.55 141.89 219.457 142.587 219.411C151.569 218.808 158.565 226.365 153.189 235.587Z" fill="#BCBCBC"/>
<path d="M99.738 261.9L103.686 267.486C103.686 267.486 127.575 268.416 140.649 279.39C143.067 281.421 141.621 285.366 138.465 285.366C137.674 285.369 136.907 285.09 136.302 284.58C133.215 281.988 121.422 273.84 94.746 273.594C68.754 273.351 58.785 281.394 56.028 284.325C55.7136 284.656 55.3347 284.919 54.9147 285.098C54.4947 285.277 54.0425 285.368 53.586 285.366H53.073C49.833 285.366 48.462 281.274 51.021 279.288C61.935 270.801 86.4 268.095 86.4 268.095L90.576 261.795" fill="#353642"/>
<path d="M205.461 230.925C205.461 230.925 212.778 237.876 210.495 259.425C210.329 260.964 209.794 262.439 208.935 263.727L208.14 264.927C206.836 266.88 204.87 268.295 202.605 268.911C197.826 270.216 189.156 273.24 183.801 278.97C181.539 281.397 183.222 285.351 186.54 285.351C187.159 285.353 187.768 285.201 188.314 284.91C188.86 284.619 189.325 284.198 189.669 283.683C191.85 280.401 198.453 273.432 214.38 273.579C232.344 273.744 239.58 280.887 241.899 283.965C242.219 284.394 242.635 284.743 243.114 284.983C243.592 285.224 244.12 285.35 244.656 285.351C245.327 285.35 245.984 285.152 246.545 284.783C247.106 284.415 247.547 283.89 247.814 283.274C248.081 282.658 248.163 281.978 248.049 281.316C247.935 280.654 247.631 280.04 247.173 279.549C240.168 271.938 231.6 269.1 226.872 268.047C224.497 267.535 222.398 266.154 220.989 264.174C219.91 262.647 219.296 260.84 219.222 258.972C218.958 252.291 218.82 236.073 223.347 230.931" fill="#353642"/>
<path d="M112.269 227.328C125.136 221.082 139.101 216.984 152.832 213.126C166.65 209.244 180.603 205.857 194.598 202.674C200.19 201.405 205.833 200.274 211.398 198.843" stroke="black" stroke-width="3" stroke-miterlimit="10"/>
<path d="M124.341 179.313H124.35H124.356" stroke="black" stroke-width="4.11" stroke-miterlimit="10"/>
<path d="M122.898 178.5C122.091 179.298 119.211 183.561 118.488 184.326C114.516 188.583 110.297 192.602 105.852 196.362C104.733 197.292 103.548 198.252 102.3 199.224C102.054 199.413 101.799 199.611 101.544 199.8C93.084 206.22 82.044 212.4 71.844 208.44C71.574 208.341 71.31 208.227 71.049 208.11C55.404 201.105 44.469 183.561 43.515 166.626C43.482 166.074 43.464 165.525 43.458 164.982C43.374 160.353 44.058 155.724 48.498 153.282" stroke="black" stroke-width="3" stroke-miterlimit="10"/>
<path d="M37.443 160.305L37.506 159.813C38.502 151.827 27.162 149.133 24.471 156.72C18.129 174.624 11.037 213.288 50.271 246.048C75.594 267.201 116.592 267.348 141.819 245.979C145.329 243.006 148.962 239.589 151.299 235.584C157.212 225.456 148.182 217.335 137.997 219.828" stroke="black" stroke-width="3" stroke-miterlimit="10"/>
<path d="M99.738 261.9L103.686 267.486C103.686 267.486 127.575 268.416 140.649 279.39C143.067 281.421 141.621 285.366 138.465 285.366C137.674 285.369 136.907 285.09 136.302 284.58C133.215 281.988 121.422 273.84 94.746 273.594C68.754 273.351 58.785 281.394 56.028 284.325C55.7136 284.656 55.3347 284.919 54.9147 285.098C54.4947 285.277 54.0425 285.368 53.586 285.366H53.073C49.833 285.366 48.462 281.274 51.021 279.288C61.935 270.801 86.4 268.095 86.4 268.095L90.576 261.795" stroke="black" stroke-width="3" stroke-miterlimit="10"/>
<path d="M86.4 179.73C96.414 177.03 100.539 162.903 102.201 153.405" stroke="black" stroke-width="3" stroke-miterlimit="10"/>
<path d="M76.986 164.553C79.7679 164.189 82.4098 163.117 84.6594 161.441C86.909 159.764 88.6909 157.539 89.835 154.977C90.0744 154.468 90.1909 153.909 90.1753 153.346C90.1596 152.784 90.0123 152.232 89.745 151.737C88.653 149.715 87.024 147.372 87.411 144.948C87.69 143.238 89.097 142.035 90.711 141.648C91.5292 141.434 92.3905 141.448 93.201 141.69C93.6867 141.828 94.1357 142.072 94.5155 142.404C94.8953 142.737 95.1964 143.15 95.397 143.613C95.79 144.534 95.322 145.446 94.599 146.046C93.876 146.646 93.03 146.859 92.148 147.099C92.034 147.132 91.722 147.198 91.377 147.264" stroke="black" stroke-width="3" stroke-miterlimit="10"/>
<path d="M211.386 198.837C211.386 198.837 231.126 194.703 234.834 188.748C235.529 187.662 235.962 186.43 236.1 185.148" stroke="black" stroke-width="3" stroke-miterlimit="10"/>
<path d="M114.252 188.667C148.683 185.01 187.545 185.55 187.545 185.55H209.355C210.765 185.552 212.169 185.387 213.54 185.058C216.888 184.26 223.488 182.511 228.726 180.042C232.278 178.365 236.421 181.053 236.118 184.977C236.118 185.025 236.118 185.076 236.1 185.133C236.792 185.133 237.474 185.3 238.088 185.62C238.701 185.94 239.229 186.403 239.626 186.969C240.023 187.536 240.277 188.191 240.367 188.877C240.457 189.563 240.381 190.261 240.144 190.911C232.788 211.128 211.386 210.495 211.386 210.495C208.65 210.576 205.92 210.684 203.181 210.825C179.052 211.998 155.136 215.385 131.724 221.364C125.22 223.017 118.782 225.375 112.272 227.325C106.722 229.002 101.115 230.373 95.352 230.793C84.204 231.6 72.768 228.72 63.579 222.276C43.452 208.152 26.13 178.704 40.074 154.8C44.997 146.364 56.145 144.054 63.915 150C74.874 158.385 83.628 174.72 88.119 184.356" stroke="black" stroke-width="3" stroke-miterlimit="10"/>
<path d="M239.688 230.925H191.772" stroke="black" stroke-width="4.11" stroke-miterlimit="10"/>
<path d="M182.1 221.247C182.107 218.682 183.129 216.224 184.942 214.41C186.756 212.597 189.213 211.574 191.778 211.566H239.7C242.265 211.573 244.724 212.595 246.538 214.409C248.352 216.223 249.374 218.682 249.381 221.247V221.247" stroke="black" stroke-width="3" stroke-miterlimit="10"/>
<path d="M250.323 224.679C250.325 225.5 250.165 226.314 249.852 227.073C249.539 227.832 249.079 228.521 248.498 229.102C247.917 229.682 247.227 230.142 246.468 230.455C245.709 230.768 244.895 230.928 244.074 230.925H187.374C185.955 230.791 184.645 230.105 183.726 229.015C182.807 227.925 182.353 226.518 182.46 225.096C182.568 223.675 183.229 222.352 184.302 221.413C185.374 220.474 186.773 219.993 188.196 220.074H244.896C245.902 220.072 246.894 220.315 247.787 220.78C248.679 221.246 249.445 221.921 250.02 222.747C250.221 223.371 250.323 224.023 250.323 224.679Z" fill="#BCBCBC"/>
<path d="M250.323 224.679C250.325 225.5 250.165 226.314 249.852 227.073C249.539 227.832 249.079 228.521 248.498 229.102C247.917 229.682 247.227 230.142 246.468 230.455C245.709 230.768 244.895 230.928 244.074 230.925H187.374C186.542 230.943 185.715 230.795 184.941 230.489C184.167 230.184 183.462 229.726 182.867 229.144C182.272 228.562 181.8 227.868 181.477 227.1C181.154 226.333 180.988 225.51 180.988 224.677C180.988 223.845 181.154 223.022 181.477 222.255C181.8 221.487 182.272 220.793 182.867 220.211C183.462 219.629 184.167 219.171 184.941 218.866C185.715 218.56 186.542 218.412 187.374 218.43H244.074C245.394 218.429 246.68 218.847 247.749 219.622C248.817 220.398 249.612 221.492 250.02 222.747C250.221 223.371 250.323 224.023 250.323 224.679V224.679Z" stroke="black" stroke-width="3" stroke-miterlimit="10"/>
<path d="M102.093 153.183L101.979 154.146C101.927 154.583 101.717 154.986 101.388 155.278C101.059 155.571 100.634 155.732 100.194 155.733H93.963C93.5229 155.732 93.0982 155.571 92.7693 155.278C92.4404 154.986 92.2301 154.583 92.178 154.146L91.374 147.246C91.719 147.18 92.031 147.114 92.145 147.081C93.027 146.841 93.882 146.637 94.596 146.028C95.31 145.419 95.796 144.528 95.394 143.595C95.1934 143.132 94.8923 142.719 94.5125 142.386C94.1327 142.054 93.6837 141.81 93.198 141.672C92.3875 141.43 91.5262 141.416 90.708 141.63L90.519 139.986C90.4912 139.735 90.5166 139.481 90.5936 139.24C90.6705 138.999 90.7973 138.777 90.9657 138.589C91.1341 138.4 91.3403 138.249 91.5709 138.146C91.8014 138.042 92.0512 137.989 92.304 137.988H101.865C102.117 137.989 102.367 138.043 102.597 138.147C102.827 138.25 103.033 138.401 103.201 138.59C103.369 138.778 103.496 139 103.573 139.241C103.649 139.481 103.675 139.735 103.647 139.986L103.425 141.861" stroke="black" stroke-width="3" stroke-miterlimit="10"/>
<path d="M102.924 146.148L102.915 146.214" stroke="black" stroke-width="4.11" stroke-miterlimit="10"/>
<path d="M102.456 150.111V150.084" stroke="black" stroke-width="4.11" stroke-miterlimit="10"/>
<path d="M102.546 150.111C102.519 150.107 102.492 150.107 102.465 150.111C102.427 150.107 102.389 150.107 102.351 150.111C101.962 150.112 101.588 150.26 101.303 150.524C101.017 150.788 100.842 151.15 100.81 151.537C100.779 151.925 100.894 152.31 101.134 152.616C101.373 152.923 101.718 153.128 102.102 153.192C102.267 153.225 102.438 153.225 102.603 153.192C103.352 153.072 104.035 152.695 104.535 152.124C105.201 151.029 105.663 149.823 105.9 148.563C105.904 148.55 105.904 148.537 105.9 148.524C106.083 147.596 106.153 146.649 106.107 145.704C106.107 145.299 106.056 144.897 106.008 144.504C105.916 143.846 105.616 143.236 105.151 142.762C104.686 142.288 104.081 141.977 103.425 141.873C103.392 141.873 103.353 141.873 103.32 141.855C102.06 141.699 100.293 142.176 99.966 143.598C99.666 144.882 101.058 145.983 102.201 146.082C102.201 146.082 102.501 146.121 102.924 146.148C103.77 146.205 105.177 146.196 106.107 145.704C106.244 145.633 106.373 145.548 106.491 145.449" stroke="black" stroke-width="3" stroke-miterlimit="10"/>
<path d="M103.86 146.217H103.653H102.054H101.349C100.872 146.219 100.414 146.403 100.069 146.731C99.7237 147.06 99.5173 147.508 99.492 147.984V147.984C99.4687 148.447 99.6178 148.901 99.9104 149.26C100.203 149.619 100.618 149.857 101.076 149.928C103.146 150.261 105.51 150.33 105.915 148.476" stroke="black" stroke-width="3" stroke-miterlimit="10"/>
<path d="M205.461 230.925C205.461 230.925 212.778 237.876 210.495 259.425C210.329 260.964 209.794 262.439 208.935 263.727L208.14 264.927C206.836 266.88 204.87 268.295 202.605 268.911C197.826 270.216 189.156 273.24 183.801 278.97C181.539 281.397 183.222 285.351 186.54 285.351C187.159 285.353 187.768 285.201 188.314 284.91C188.86 284.619 189.325 284.198 189.669 283.683C191.85 280.401 198.453 273.432 214.38 273.579C232.344 273.744 239.58 280.887 241.899 283.965C242.219 284.394 242.635 284.743 243.114 284.983C243.592 285.224 244.12 285.35 244.656 285.351V285.351C245.327 285.35 245.984 285.152 246.545 284.783C247.106 284.415 247.547 283.89 247.814 283.274C248.081 282.658 248.163 281.978 248.049 281.316C247.935 280.654 247.631 280.04 247.173 279.549C240.168 271.938 231.6 269.1 226.872 268.047C224.497 267.535 222.398 266.154 220.989 264.174C219.91 262.647 219.296 260.84 219.222 258.972C218.958 252.291 218.82 236.073 223.347 230.931" stroke="black" stroke-width="3" stroke-miterlimit="10"/>
<path d="M190.251 180.558V181.044C190.251 184.371 187.569 184.944 185.253 185.001L140.43 186.045C138.465 186.093 136.812 184.377 136.77 182.229V182.139C136.77 180.039 138.318 178.284 140.256 178.239C140.256 178.239 165.333 177.531 184.749 176.997C185.121 178.173 186.021 179.079 187.149 179.79C188.084 180.349 189.164 180.616 190.251 180.558V180.558Z" stroke="black" stroke-width="3" stroke-miterlimit="10"/>
<path d="M214.077 133.128C214.079 133.675 213.954 134.216 213.711 134.706L193.665 175.8C193.43 176.277 193.093 176.697 192.679 177.03C192.264 177.363 191.782 177.602 191.265 177.729C190.437 177.941 189.561 177.852 188.793 177.477C188.177 177.174 187.659 176.704 187.298 176.12C186.937 175.537 186.747 174.863 186.75 174.177C186.752 174.008 186.764 173.84 186.786 173.673C186.839 173.301 186.951 172.94 187.116 172.602L207.159 131.502C207.521 130.764 208.122 130.171 208.865 129.819C209.607 129.467 210.447 129.377 211.247 129.563C212.047 129.749 212.761 130.201 213.271 130.844C213.782 131.488 214.06 132.285 214.059 133.107L214.077 133.128Z" stroke="black" stroke-width="3" stroke-miterlimit="10"/>
<path d="M51.789 129.072C51.765 128.988 51.732 128.907 51.705 128.826C51.678 128.745 51.639 128.652 51.615 128.562" stroke="black" stroke-width="4.11" stroke-linecap="round" stroke-linejoin="round"/>
<path d="M51.789 129.075L52.404 128.457L53.58 127.266" stroke="black" stroke-width="4.11" stroke-linecap="round" stroke-linejoin="round"/>
<path d="M58.71 130.701C58.71 130.701 59.499 133.056 62.514 133.215" stroke="black" stroke-width="2" stroke-miterlimit="10"/>
<path d="M45.3 136.218C42.6 137.583 39.537 134.631 39.75 132.198C39.888 130.53 39.51 129.378 38.277 128.169C38.196 128.088 38.121 128.004 38.049 127.923C37.5796 127.412 37.2744 126.772 37.1727 126.086C37.0711 125.4 37.1778 124.699 37.479 124.074C38.04 122.769 39.249 122.004 38.409 120.597C38.0404 119.988 37.7711 119.325 37.611 118.632C37.4435 117.713 37.4748 116.768 37.7031 115.862C37.9313 114.956 38.351 114.109 38.934 113.379C40.17 111.879 42.183 112.293 43.836 111.768C45.825 111.135 46.755 108.996 48.843 108.339C49.887 108.012 50.856 108.159 51.9 108.396C52.779 108.603 53.661 108.834 54.516 109.104C55.371 109.374 56.151 109.605 57.006 109.35C58.125 109.023 58.986 107.994 60.204 107.985C61.422 107.976 62.358 108.693 62.904 109.695C63.768 111.267 63.774 113.553 62.961 114.909C62.121 116.313 60.363 116.907 58.851 117.21C56.919 117.606 54.921 117.711 52.965 117.885L51.828 118.164C51.3955 118.298 51.0338 118.598 50.8223 118.999C50.6109 119.399 50.5669 119.867 50.7 120.3C51.4035 122.721 52.3713 125.057 53.586 127.266" stroke="black" stroke-width="3" stroke-miterlimit="10"/>
<path d="M53.58 136.563C53.58 136.563 59.532 140.922 62.925 138.519C66.318 136.116 64.401 129.072 64.401 129.072" stroke="black" stroke-width="2" stroke-linecap="round" stroke-linejoin="round"/>
<path d="M95.637 134.979C95.637 134.979 93.108 133.269 94.716 131.523C96.324 129.777 94.182 127.473 94.182 127.473" stroke="black" stroke-width="3" stroke-miterlimit="10"/>
<path d="M97.971 135.276C97.971 135.276 99.645 134.145 98.571 132.987C97.497 131.829 98.928 130.287 98.928 130.287" stroke="black" stroke-width="3" stroke-miterlimit="10"/>
<path d="M109.506 118.98C127.718 118.98 142.482 104.216 142.482 86.004C142.482 67.7919 127.718 53.028 109.506 53.028C91.2938 53.028 76.53 67.7919 76.53 86.004C76.53 104.216 91.2938 118.98 109.506 118.98Z" stroke="#BCBCBC" stroke-width="4.11" stroke-miterlimit="10"/>
<path d="M109.506 104.115C119.508 104.115 127.617 96.0064 127.617 86.004C127.617 76.0016 119.508 67.893 109.506 67.893C99.5036 67.893 91.395 76.0016 91.395 86.004C91.395 96.0064 99.5036 104.115 109.506 104.115Z" stroke="#BCBCBC" stroke-width="4.11" stroke-miterlimit="10"/>
<path d="M109.506 89.109C111.221 89.109 112.611 87.7188 112.611 86.004C112.611 84.2892 111.221 82.899 109.506 82.899C107.791 82.899 106.401 84.2892 106.401 86.004C106.401 87.7188 107.791 89.109 109.506 89.109Z" stroke="#BCBCBC" stroke-width="4.11" stroke-miterlimit="10"/>
<path d="M115.935 75.636L111.141 83.364" stroke="#BCBCBC" stroke-width="4.11" stroke-miterlimit="10"/>
<path d="M109.506 67.893V71.115" stroke="#BCBCBC" stroke-width="4.11" stroke-miterlimit="10"/>
<path d="M127.617 86.004H124.563" stroke="#BCBCBC" stroke-width="4.11" stroke-miterlimit="10"/>
<path d="M109.506 104.118V100.986" stroke="#BCBCBC" stroke-width="4.11" stroke-miterlimit="10"/>
<path d="M91.392 86.004H94.146" stroke="#BCBCBC" stroke-width="4.11" stroke-miterlimit="10"/>
<path d="M141.111 140.832C147.888 140.832 153.381 135.339 153.381 128.562C153.381 121.785 147.888 116.292 141.111 116.292C134.334 116.292 128.841 121.785 128.841 128.562C128.841 135.339 134.334 140.832 141.111 140.832Z" fill="#1355FF"/>
<path d="M145.146 124.464C144.973 124.065 144.74 123.695 144.456 123.366C143.97 122.791 143.291 122.413 142.546 122.302C141.801 122.192 141.041 122.357 140.409 122.766C139.997 123.035 139.652 123.396 139.402 123.82C139.153 124.244 139.004 124.72 138.969 125.211C138.323 124.974 137.618 124.954 136.959 125.153C136.301 125.352 135.725 125.76 135.319 126.315C134.913 126.87 134.698 127.542 134.707 128.23C134.716 128.918 134.948 129.584 135.369 130.128C136.248 131.274 137.742 132.027 139.095 132.465C139.805 132.692 140.535 132.847 141.276 132.927C141.651 132.969 143.79 133.257 143.976 132.927C145.311 130.839 146.259 127.014 145.146 124.464Z" fill="white"/>
<g opacity="0.72">
<path opacity="0.72" d="M171.693 123.483C175.424 123.483 178.449 120.458 178.449 116.727C178.449 112.996 175.424 109.971 171.693 109.971C167.962 109.971 164.937 112.996 164.937 116.727C164.937 120.458 167.962 123.483 171.693 123.483Z" fill="#1355FF"/>
<path opacity="0.72" d="M174.624 117.924C174.791 117.754 174.931 117.558 175.038 117.345C175.231 116.977 175.282 116.552 175.184 116.148C175.085 115.745 174.842 115.392 174.501 115.155C174.278 115.001 174.023 114.901 173.755 114.862C173.487 114.824 173.213 114.848 172.956 114.933C172.941 114.554 172.804 114.191 172.565 113.897C172.326 113.603 171.997 113.396 171.63 113.305C171.262 113.214 170.874 113.245 170.526 113.394C170.178 113.543 169.887 113.801 169.698 114.129C169.331 114.872 169.188 115.706 169.287 116.529C169.321 116.935 169.395 117.337 169.509 117.729C169.566 117.93 169.866 119.079 170.07 119.115C171.411 119.34 173.559 119.025 174.624 117.924Z" fill="white"/>
</g>
<path d="M162.012 148.631L158.8 155.422C157.636 157.884 158.688 160.824 161.15 161.989L167.941 165.2C170.403 166.365 173.344 165.313 174.508 162.85L177.72 156.06C178.884 153.597 177.832 150.657 175.369 149.492L168.579 146.281C166.116 145.116 163.176 146.169 162.012 148.631Z" fill="#1355FF"/>
<path d="M175.887 157.248L173.562 162.165C173.074 163.189 172.201 163.979 171.133 164.361C170.065 164.744 168.889 164.689 167.862 164.208L161.964 161.418C160.94 160.93 160.152 160.056 159.769 158.988C159.387 157.921 159.443 156.745 159.924 155.718L160.08 155.388C161.682 154.11 164.451 152.388 165.462 154.731C166.917 158.115 168.81 157.023 171.228 155.607C173.247 154.413 175.671 154.014 175.887 157.248Z" fill="white"/>
<path d="M166.752 152.022C167.754 152.022 168.567 151.209 168.567 150.207C168.567 149.205 167.754 148.392 166.752 148.392C165.75 148.392 164.937 149.205 164.937 150.207C164.937 151.209 165.75 152.022 166.752 152.022Z" fill="white"/>
<path d="M197.718 126.357C198.079 127.015 198.341 127.723 198.495 128.457C198.77 129.8 198.691 131.192 198.266 132.496C197.841 133.8 197.085 134.971 196.071 135.894C195.267 136.605 194.244 137.16 193.431 137.904C192.838 138.416 192.401 139.084 192.171 139.833C192.129 140.089 192.026 140.33 191.871 140.538C191.397 141.048 190.932 140.238 190.521 140.1C189.859 139.884 189.14 139.92 188.502 140.199C186.824 140.901 184.955 141 183.212 140.481C181.469 139.962 179.96 138.856 178.939 137.351C177.918 135.846 177.45 134.034 177.612 132.223C177.775 130.411 178.559 128.712 179.832 127.413C181.089 126.132 182.733 125.313 184.332 124.479C185.73 123.738 187.122 122.949 188.64 122.505C192.198 121.44 195.996 123.213 197.718 126.357Z" fill="#1355FF"/>
<path d="M183.39 135.624C184.334 135.624 185.1 134.858 185.1 133.914C185.1 132.97 184.334 132.204 183.39 132.204C182.446 132.204 181.68 132.97 181.68 133.914C181.68 134.858 182.446 135.624 183.39 135.624Z" fill="white"/>
<path d="M187.995 133.161C188.939 133.161 189.705 132.395 189.705 131.451C189.705 130.507 188.939 129.741 187.995 129.741C187.051 129.741 186.285 130.507 186.285 131.451C186.285 132.395 187.051 133.161 187.995 133.161Z" fill="white"/>
<path d="M192.315 130.851C193.259 130.851 194.025 130.085 194.025 129.141C194.025 128.197 193.259 127.431 192.315 127.431C191.371 127.431 190.605 128.197 190.605 129.141C190.605 130.085 191.371 130.851 192.315 130.851Z" fill="white"/>
<path d="M140.178 73.881C140.178 73.881 151.437 108.705 194.778 106.824C209.178 105.024 226.317 106.824 241.578 126.924C264.777 157.5 255.462 191.562 244.92 213.183" stroke="#BCBCBC" stroke-width="4.11" stroke-miterlimit="10"/>
<g opacity="0.54">
<path opacity="0.54" d="M202.827 87.558C202.785 88.0833 202.703 88.6047 202.584 89.118L201.234 94.974C200.82 96.774 200.355 98.658 199.071 99.972C196.671 102.42 192.681 101.859 189.345 101.118L181.155 99.3C179.274 98.883 177.363 98.454 175.677 97.521C173.991 96.588 172.527 95.061 172.137 93.174C171.837 91.782 172.158 90.342 172.464 88.956L173.7 83.334C174.111 81.492 174.573 79.548 175.902 78.207C178.269 75.822 182.202 76.365 185.472 77.076L193.86 78.9C198.918 79.992 203.229 82.338 202.827 87.558Z" fill="#1355FF"/>
<path opacity="0.54" d="M191.532 87.714C191.883 88.0401 192.142 88.4529 192.282 88.9109C192.423 89.3688 192.44 89.8556 192.333 90.3225C192.226 90.7893 191.997 91.2196 191.671 91.5701C191.344 91.9206 190.931 92.1789 190.473 92.319L187.977 93.084L185.481 93.849C185.023 93.9891 184.536 94.0062 184.069 93.8986C183.603 93.791 183.172 93.5624 182.822 93.236C182.471 92.9095 182.213 92.4965 182.073 92.0386C181.932 91.5807 181.915 91.0938 182.022 90.627L182.622 88.083L183.207 85.542C183.314 85.075 183.542 84.6443 183.868 84.2935C184.195 83.9426 184.607 83.6839 185.066 83.5434C185.524 83.4029 186.011 83.3855 186.477 83.4931C186.944 83.6006 187.375 83.8293 187.725 84.156L189.636 85.935L191.532 87.714Z" fill="white"/>
</g>
<path d="M25.944 285.351H285" stroke="black" stroke-width="4.11" stroke-miterlimit="10"/>
</svg>
