<svg width="328" height="300" viewBox="0 0 328 300" fill="none" xmlns="http://www.w3.org/2000/svg">
<path d="M168.75 14.5128C168.75 12.5379 170.351 10.9369 172.326 10.9369H187.049C189.024 10.9369 190.625 12.5379 190.625 14.5128V29.236C190.625 31.2109 189.024 32.8119 187.049 32.8119H172.326C170.351 32.8119 168.75 31.2109 168.75 29.236V14.5128Z" fill="#1355FF"/>
<path d="M168.75 44.2015C168.75 42.2266 170.351 40.6256 172.326 40.6256H187.049C189.024 40.6256 190.625 42.2266 190.625 44.2015V58.9247C190.625 60.8996 189.024 62.5006 187.049 62.5006H172.326C170.351 62.5006 168.75 60.8996 168.75 58.9247V44.2015Z" fill="#1355FF"/>
<path d="M168.75 73.8884C168.75 71.9135 170.351 70.3125 172.326 70.3125H187.049C189.024 70.3125 190.625 71.9135 190.625 73.8884V88.6116C190.625 90.5865 189.024 92.1875 187.049 92.1875H172.326C170.351 92.1875 168.75 90.5865 168.75 88.6116V73.8884Z" fill="#1355FF"/>
<path d="M168.75 103.575C168.75 101.6 170.351 99.9994 172.326 99.9994H187.049C189.024 99.9994 190.625 101.6 190.625 103.575V118.299C190.625 120.273 189.024 121.874 187.049 121.874H172.326C170.351 121.874 168.75 120.273 168.75 118.299V103.575Z" fill="#1355FF"/>
<path d="M173.438 20.3119L178.125 24.9994L185.938 17.1869M225 1.56189H155.139C153.164 1.56189 151.563 3.16286 151.563 5.13777V132.361C151.563 134.336 153.164 135.937 155.139 135.937H294.862C296.837 135.937 298.438 134.336 298.438 132.361V5.13778C298.438 3.16287 296.837 1.56189 294.862 1.56189H225Z" stroke="#333333" stroke-width="1.78794" stroke-linecap="round" stroke-linejoin="round"/>
<path d="M93.7503 77.6741V22.3259C93.7503 20.351 92.1493 18.75 90.1744 18.75H28.5762C26.6013 18.75 25.0003 20.351 25.0003 22.3259V77.6741C25.0003 79.649 26.6013 81.25 28.5762 81.25H90.1744C92.1493 81.25 93.7503 79.649 93.7503 77.6741Z" fill="#1355FF"/>
<path d="M59.3752 28.125V57.8125M59.3752 65.625V68.75" stroke="white" stroke-width="1.78794" stroke-linecap="round" stroke-linejoin="round"/>
<path d="M21.8744 120.763C21.8744 118.788 23.4754 117.188 25.4503 117.188H274.225C276.2 117.188 277.801 118.788 277.801 120.763V287.632H21.8744V120.763Z" fill="white"/>
<path d="M21.8744 287.632H277.801H297.381C297.875 287.632 298.275 288.032 298.275 288.526V294.862C298.275 296.837 296.674 298.437 294.699 298.437H4.9762C3.00129 298.437 1.4003 296.837 1.4003 294.862V288.526C1.4003 288.032 1.80054 287.632 2.29427 287.632H21.8744Z" fill="white"/>
<path d="M277.801 287.632V120.763C277.801 118.788 276.2 117.188 274.225 117.188H25.4503C23.4754 117.188 21.8744 118.788 21.8744 120.763V287.632M277.801 287.632H21.8744M277.801 287.632H297.381C297.875 287.632 298.275 288.032 298.275 288.526V294.862C298.275 296.837 296.674 298.437 294.699 298.437H4.9762C3.00129 298.437 1.4003 296.837 1.4003 294.862V288.526C1.4003 288.032 1.80054 287.632 2.29427 287.632H21.8744" stroke="#333333" stroke-width="1.78794"/>
<path fill-rule="evenodd" clip-rule="evenodd" d="M34.3748 129.687C34.3748 127.962 35.774 126.562 37.4998 126.562H262.5C264.226 126.562 265.625 127.962 265.625 129.687V145.312H34.3748V129.687ZM53.1248 135.937C53.1248 139.389 50.3266 142.187 46.8748 142.187C43.4231 142.187 40.6248 139.389 40.6248 135.937C40.6248 132.486 43.4231 129.687 46.8748 129.687C50.3266 129.687 53.1248 132.486 53.1248 135.937ZM71.8748 135.937C71.8748 139.389 69.0766 142.187 65.6248 142.187C62.1731 142.187 59.3748 139.389 59.3748 135.937C59.3748 132.486 62.1731 129.687 65.6248 129.687C69.0766 129.687 71.8748 132.486 71.8748 135.937ZM84.3748 142.187C87.8266 142.187 90.6248 139.389 90.6248 135.937C90.6248 132.486 87.8266 129.687 84.3748 129.687C80.9231 129.687 78.1248 132.486 78.1248 135.937C78.1248 139.389 80.9231 142.187 84.3748 142.187Z" fill="#1355FF"/>
<path d="M34.3748 148.437H265.625V285.937H34.3748V148.437Z" fill="#1355FF"/>
<path d="M212.049 165.624H84.8257C82.8508 165.624 81.2498 167.225 81.2498 169.2V287.499H215.625V169.2C215.625 167.225 214.024 165.624 212.049 165.624Z" fill="white"/>
<path d="M106.25 184.374L190.625 184.374" stroke="#333333" stroke-width="1.78794" stroke-linecap="round" stroke-linejoin="round"/>
<path d="M106.25 206.25L190.625 206.25" stroke="#333333" stroke-width="1.78794" stroke-linecap="round" stroke-linejoin="round"/>
<path d="M106.25 243.75L190.625 243.75" stroke="#333333" stroke-width="1.78794" stroke-linecap="round" stroke-linejoin="round"/>
<path d="M106.25 215.625L190.625 215.625" stroke="#333333" stroke-width="1.78794" stroke-linecap="round" stroke-linejoin="round"/>
<path d="M106.25 253.125L190.625 253.125" stroke="#333333" stroke-width="1.78794" stroke-linecap="round" stroke-linejoin="round"/>
<path d="M106.25 225L190.625 225" stroke="#333333" stroke-width="1.78794" stroke-linecap="round" stroke-linejoin="round"/>
<path d="M106.25 262.5L190.625 262.5" stroke="#333333" stroke-width="1.78794" stroke-linecap="round" stroke-linejoin="round"/>
<path d="M106.25 234.375L190.625 234.375" stroke="#333333" stroke-width="1.78794" stroke-linecap="round" stroke-linejoin="round"/>
<path d="M106.25 271.875L190.625 271.875" stroke="#333333" stroke-width="1.78794" stroke-linecap="round" stroke-linejoin="round"/>
<path d="M60.7121 165.624H48.6629C47.6755 165.624 46.875 166.425 46.875 167.412V179.461C46.875 180.449 47.6755 181.249 48.6629 181.249H60.7121C61.6995 181.249 62.5 180.449 62.5 179.461V167.412C62.5 166.425 61.6995 165.624 60.7121 165.624Z" fill="white"/>
<path d="M60.7121 187.5H48.6629C47.6755 187.5 46.875 188.3 46.875 189.288V201.337C46.875 202.325 47.6755 203.125 48.6629 203.125H60.7121C61.6995 203.125 62.5 202.325 62.5 201.337V189.288C62.5 188.3 61.6995 187.5 60.7121 187.5Z" fill="white"/>
<path d="M60.7121 209.376H48.6629C47.6755 209.376 46.875 210.176 46.875 211.164V223.213C46.875 224.2 47.6755 225.001 48.6629 225.001H60.7121C61.6995 225.001 62.5 224.2 62.5 223.213V211.164C62.5 210.176 61.6995 209.376 60.7121 209.376Z" fill="white"/>
<path d="M21.8744 287.499H277.801H297.381C297.875 287.499 298.275 287.9 298.275 288.393V294.729C298.275 296.704 296.674 298.305 294.699 298.305H4.9762C3.00129 298.305 1.4003 296.704 1.4003 294.729V288.393C1.4003 287.9 1.80054 287.499 2.29427 287.499H21.8744Z" fill="white" stroke="#333333" stroke-width="1.78794"/>
<path d="M277.801 287.632V120.763C277.801 118.788 276.2 117.187 274.225 117.187H25.4503C23.4754 117.187 21.8744 118.788 21.8744 120.763V287.632M277.801 287.632H21.8744M277.801 287.632H297.381C297.875 287.632 298.275 288.032 298.275 288.526V294.862C298.275 296.837 296.674 298.437 294.699 298.437H4.9762C3.00129 298.437 1.4003 296.837 1.4003 294.862V288.526C1.4003 288.032 1.80054 287.632 2.29427 287.632H21.8744" stroke="#333333" stroke-width="1.78794"/>
<path d="M242 23.8738L298.25 23.8738" stroke="#333333" stroke-width="1.78794" stroke-linecap="round" stroke-linejoin="round"/>
<path d="M242 48.875L326.375 48.875" stroke="#333333" stroke-width="1.78794" stroke-linecap="round" stroke-linejoin="round"/>
<path d="M242 55.1244L263.875 55.1244" stroke="#333333" stroke-width="1.78794" stroke-linecap="round" stroke-linejoin="round"/>
<path d="M242 80.1238L313.875 80.1238" stroke="#333333" stroke-width="1.78794" stroke-linecap="round" stroke-linejoin="round"/>
<path d="M242 86.375L295.125 86.375" stroke="#333333" stroke-width="1.78794" stroke-linecap="round" stroke-linejoin="round"/>
<path d="M242 111.374L304.5 111.374" stroke="#333333" stroke-width="1.78794" stroke-linecap="round" stroke-linejoin="round"/>
</svg>
