<svg width="250" height="250" viewBox="0 0 250 250" fill="none" xmlns="http://www.w3.org/2000/svg">
<path d="M130.677 12.6072C130.677 12.6068 130.692 12.6105 130.719 12.6193C130.689 12.6119 130.676 12.6075 130.677 12.6072ZM125.725 22.0577C125.95 22.1965 126.18 22.319 126.409 22.4275C123.375 24.0433 120.093 25.901 117.026 27.9653C112.392 31.0857 107.509 35.1531 104.959 40.2479C103.927 42.3101 102.949 44.819 103.154 47.3144C103.271 48.7432 103.797 50.3589 105.081 51.693C106.333 52.9927 107.845 53.5476 109.067 53.7621C111.276 54.1497 113.537 53.6093 115.178 53.0907C117.003 52.5139 118.969 51.6571 120.919 50.6833C128.195 47.0479 137.299 40.7156 141.865 36.4072C142.878 37.2986 144.199 38.9323 146 41.4169C146.316 41.853 146.646 42.3136 146.987 42.7904C148.644 45.1045 150.576 47.8031 152.561 49.9651C154.627 52.215 157.872 55.1839 162.144 55.5828C162.182 56.3877 162.047 57.6916 161.469 59.3664C159.87 63.9999 156.462 67.3933 153.299 67.7885C151.281 68.0404 149.258 68.5999 147.507 69.7561C145.641 70.9882 144.378 72.7067 143.724 74.6949C142.587 78.1502 143.483 81.9618 144.22 84.6292C144.609 86.0367 145.083 87.5295 145.544 88.9774C145.575 89.0745 145.605 89.1713 145.636 89.2679C146.137 90.8448 146.632 92.4152 147.078 94.0298C147.813 96.6929 148.368 99.3204 148.542 101.905C147.797 101.557 147.033 101.17 146.175 100.736C145.781 100.537 145.368 100.328 144.928 100.108C143.482 99.3855 141.78 98.5668 140.078 97.9811C138.455 97.4226 136.236 96.8572 133.904 97.1938C131.191 97.5855 128.831 99.1288 127.384 101.753C126.121 104.042 125.734 106.815 125.734 109.666C125.734 112.051 125.403 113.11 125.21 113.516C124.863 113.522 123.927 113.471 122.029 112.797C120.013 112.083 117.9 111.051 115.563 109.91C114.888 109.58 114.195 109.242 113.48 108.899C111.986 108.183 110.388 107.45 108.855 106.894C107.396 106.364 105.552 105.825 103.659 105.825C98.9979 105.825 92.7419 107.171 87.492 110.136C82.2197 113.114 76.9534 118.389 76.9534 126.421C76.9534 126.788 76.9677 127.147 76.9958 127.499C73.5717 126.703 70.4176 126.111 68.0668 125.718C67.9255 125.58 67.6382 125.195 67.2837 124.25C66.5798 122.375 66.1343 119.519 65.9518 115.871C65.7736 112.31 65.8605 108.411 66.0023 104.632C66.0393 103.646 66.0809 102.655 66.1218 101.677C66.2328 99.0274 66.3396 96.4797 66.3396 94.4348C66.3396 91.0164 64.6344 88.5872 62.596 87.0656C61.0086 85.8807 59.0896 85.1659 57.9665 84.7476C57.8972 84.7218 57.8309 84.6971 57.7679 84.6735C56.9438 84.3648 56.4229 84.1563 56.0811 84.0009C56.1178 78.7893 57.3432 74.7981 59.8916 72.6155C65.9843 67.3975 69.2672 61.9324 70.9043 56.0903C72.4387 50.6151 72.4379 45.0296 72.4372 39.9309C72.4371 39.8211 72.4371 39.7114 72.4371 39.602C72.4371 39.4526 72.6808 38.1683 75.4121 35.8942C77.9014 33.8215 81.5233 31.721 85.6865 29.822C89.8043 27.9436 94.2129 26.3702 98.1088 25.274C102.132 24.1421 105.177 23.642 106.707 23.642C108.062 23.642 110.035 23.4397 111.775 22.2016C113.902 20.688 114.656 18.4013 114.583 16.4115C114.521 14.7331 113.9 13.2846 113.393 12.312C112.842 11.2544 112.14 10.2284 111.42 9.29096C110.702 8.35489 109.874 7.38868 108.987 6.42521C114.223 5.72572 119.568 5.36438 125 5.36438C129.656 5.36438 134.248 5.62985 138.762 6.1462C136.519 7.1403 134.187 8.04842 131.786 8.90546C130.169 9.48283 128.555 10.1291 127.256 10.8188C126.624 11.1542 125.852 11.611 125.155 12.2061C124.672 12.6177 123.129 13.9861 122.855 16.3107C122.485 19.4446 124.556 21.3389 125.725 22.0577ZM141.123 35.8622C141.123 35.862 141.127 35.8637 141.136 35.8681C141.127 35.8646 141.123 35.8624 141.123 35.8622ZM148.523 104.557C148.523 104.557 148.524 104.552 148.526 104.544C148.524 104.553 148.523 104.557 148.523 104.557ZM125.075 113.734C125.073 113.733 125.085 113.715 125.114 113.688C125.09 113.723 125.076 113.736 125.075 113.734ZM102.925 144.698C102.925 142.241 102.013 140.208 100.772 138.57C101.23 138.486 101.677 138.396 102.114 138.3C103.051 138.095 104.008 137.849 104.941 137.561C105.191 138.244 105.51 138.958 105.921 139.669C107.218 141.915 109.274 143.877 112.309 145.098C112.325 145.144 112.343 145.207 112.362 145.29C112.539 146.074 112.528 147.392 112.25 149.525C112.176 150.088 112.069 150.792 111.953 151.557C111.723 153.06 111.458 154.798 111.343 156.17C111.293 156.755 111.246 157.463 111.251 158.244C110.399 157.425 109.545 156.51 108.717 155.526C106.946 153.419 105.425 151.144 104.373 149.062C103.26 146.859 102.925 145.369 102.925 144.698ZM109.829 135.365C109.828 135.366 109.804 135.381 109.758 135.405C109.806 135.374 109.829 135.363 109.829 135.365ZM103.855 132.772C103.838 132.716 103.831 132.684 103.832 132.682C103.833 132.68 103.842 132.708 103.855 132.772ZM136.087 170.886C135.108 168.97 133.553 167.521 132.01 166.453C134.81 165.684 137.631 164.773 140.053 163.981C140.283 163.905 140.508 163.832 140.728 163.76C143.133 162.973 144.939 162.381 146.117 162.087C146.106 162.09 146.236 162.054 146.6 162.098C146.978 162.144 147.509 162.264 148.248 162.513C149.616 162.975 151.129 163.67 153.118 164.584C153.407 164.717 153.706 164.855 154.017 164.997C158.588 167.09 164.875 169.863 172.256 169.863C174.154 169.863 176.228 169.781 177.987 169.712C178.992 169.673 179.894 169.638 180.602 169.624C182.986 169.577 184.273 169.712 185.043 169.969C185.478 170.114 185.637 170.226 185.87 170.705C186.252 171.488 186.709 173.199 186.709 176.684C186.709 179.246 187.19 181.674 188.344 183.807C189.525 185.988 191.247 187.555 193.214 188.58C196.896 190.5 201.215 190.42 204.552 190.003C206.124 189.807 207.693 189.505 209.181 189.161C208.728 189.993 208.276 190.837 207.855 191.659C206.812 193.694 205.704 196.065 205.162 198.229C204.128 202.365 205.279 206.24 206.599 208.984C206.969 209.754 207.377 210.487 207.803 211.174C189.285 228.921 165.075 240.77 138.181 243.714C139.774 241.081 141.546 237.854 143.516 233.917C144.21 232.532 144.868 231.239 145.479 230.04C147.078 226.901 148.352 224.399 149.076 222.541C149.592 221.217 150.139 219.5 150.053 217.642C149.951 215.424 148.998 213.642 147.656 212.301C146.543 211.189 145.165 210.391 144.118 209.815C143.674 209.571 142.959 209.195 142.21 208.802C141.505 208.431 140.769 208.044 140.202 207.737C137.285 206.157 133.359 203.843 128.312 199.881C123.317 195.96 122.02 193.411 121.757 192.226C121.594 191.497 121.685 190.735 122.87 189.433C124.198 187.972 126.233 186.616 128.682 185.099C128.85 184.996 129.021 184.89 129.196 184.782C130.173 184.179 131.239 183.521 132.144 182.893C133.091 182.236 134.565 181.151 135.559 179.661C137.447 176.833 137.481 173.611 136.087 170.886ZM68.1618 125.784C68.1604 125.79 68.1328 125.779 68.0835 125.734C68.1386 125.756 68.1632 125.778 68.1618 125.784ZM239.609 90.4982C242.216 99.1815 243.861 108.281 244.421 117.674C241.872 111.17 240.12 104.554 240.12 99.0042C240.12 96.3734 239.933 93.4996 239.609 90.4982ZM230.183 144.698C230.183 143.967 229.963 143.565 229.564 143.439C227.193 142.692 226.679 143.606 226.965 144.698C227.178 145.511 227.834 146.422 228.499 146.822C229.334 147.325 230.183 147.02 230.183 144.698Z" fill="#1355FF" stroke="#1355FF" stroke-width="10.7277"/>
<path d="M0.89417 124.897C0.89417 65.7654 42.319 16.2978 97.7563 3.89153C106.522 1.92976 115.64 0.894521 125 0.894521C134.9 0.894521 144.529 2.05262 153.757 4.24024C182.509 11.0557 207.391 27.8666 224.521 50.799C239.964 71.4717 249.106 97.1166 249.106 124.897C249.106 158.351 235.849 188.708 214.296 211.015C191.726 234.374 160.061 248.9 125 248.9C61.5817 248.9 9.27316 201.372 1.80779 140.021C1.20467 135.064 0.89417 130.017 0.89417 124.897Z" stroke="#333333" stroke-width="1.78794"/>
<ellipse cx="85.366" cy="164.499" rx="3.04878" ry="3.04627" fill="#333333"/>
<ellipse cx="137.195" cy="73.1114" rx="3.04878" ry="3.04627" fill="#333333"/>
<ellipse cx="185.975" cy="115.759" rx="3.04878" ry="3.04627" fill="#333333"/>
<ellipse cx="240.853" cy="103.574" rx="3.04878" ry="3.04627" fill="#333333"/>
<ellipse cx="231.707" cy="149.268" rx="3.04878" ry="3.04627" fill="#333333"/>
<ellipse cx="164.634" cy="194.961" rx="3.04878" ry="3.04627" fill="#333333"/>
<ellipse cx="195.122" cy="207.147" rx="3.04878" ry="3.04627" fill="#333333"/>
<ellipse cx="161.585" cy="231.517" rx="3.04878" ry="3.04627" fill="#333333"/>
<ellipse cx="85.366" cy="73.1114" rx="3.04878" ry="3.04627" fill="#333333"/>
<ellipse cx="88.4146" cy="45.6943" rx="3.04878" ry="3.04627" fill="#333333"/>
</svg>
