<svg width="36" height="36" viewBox="0 0 36 36" fill="none" xmlns="http://www.w3.org/2000/svg">
<path d="M18.0326 0.134766C8.11117 0.134766 0.065918 8.31569 0.065918 18.4082C0.065918 26.482 5.21392 33.3318 12.3526 35.7481C13.2505 35.9172 13.5802 35.3516 13.5802 34.869C13.5802 34.4332 13.5635 32.9937 13.5558 31.4668C8.55746 32.5722 7.50275 29.3107 7.50275 29.3107C6.68546 27.1986 5.50787 26.6369 5.50787 26.6369C3.87775 25.5028 5.63075 25.5261 5.63075 25.5261C7.43491 25.6547 8.38489 27.4092 8.38489 27.4092C9.98734 30.2028 12.588 29.3952 13.6132 28.9282C13.7745 27.7475 14.2401 26.9407 14.7539 26.4847C10.7633 26.0226 6.56823 24.4557 6.56823 17.4538C6.56823 15.4587 7.27008 13.8286 8.41941 12.5488C8.23286 12.0883 7.61789 10.23 8.59346 7.7129C8.59346 7.7129 10.1022 7.22178 13.5356 9.58603C14.9687 9.18114 16.5057 8.9781 18.0326 8.97114C19.5595 8.9781 21.0977 9.18114 22.5335 9.58603C25.9627 7.22178 27.4694 7.7129 27.4694 7.7129C28.4473 10.23 27.832 12.0883 27.6455 12.5488C28.7975 13.8286 29.4946 15.4587 29.4946 17.4538C29.4946 24.4724 25.2915 26.0178 21.2907 26.4702C21.9352 27.0373 22.5094 28.1493 22.5094 29.8542C22.5094 32.299 22.4886 34.2668 22.4886 34.869C22.4886 35.3553 22.812 35.9251 23.7227 35.7456C30.8575 33.3266 35.999 26.4793 35.999 18.4082C35.999 8.31569 27.9549 0.134766 18.0326 0.134766" fill="#282828"/>
<path d="M6.87082 26.3708C6.83125 26.4619 6.69082 26.4888 6.56289 26.4265C6.43257 26.3669 6.35938 26.2431 6.40163 26.1521C6.44031 26.0586 6.58103 26.0328 6.71105 26.0949C6.84166 26.1548 6.91604 26.2798 6.87082 26.3708" fill="#282828"/>
<path d="M7.5981 27.1961C7.51242 27.2769 7.34491 27.2394 7.23126 27.1117C7.11374 26.9843 7.09172 26.814 7.1786 26.732C7.26696 26.6512 7.42941 26.689 7.54723 26.8164C7.66475 26.9453 7.68765 27.1144 7.5981 27.1961" fill="#282828"/>
<path d="M8.30663 28.2506C8.19654 28.3284 8.01654 28.2554 7.90527 28.0929C7.79518 27.9304 7.79518 27.7355 7.90765 27.6575C8.01922 27.5794 8.19654 27.6496 8.30931 27.8109C8.41909 27.9758 8.41909 28.171 8.30663 28.2506" fill="#282828"/>
<path d="M9.27732 29.2657C9.17884 29.3762 8.96909 29.3465 8.81557 29.1958C8.65848 29.0485 8.61474 28.8394 8.71352 28.7289C8.81319 28.6181 9.02413 28.6493 9.17884 28.7988C9.33474 28.9459 9.38234 29.1565 9.27732 29.2657" fill="#282828"/>
<path d="M10.6165 29.8557C10.5731 29.9988 10.3711 30.0638 10.1676 30.003C9.96437 29.9404 9.83138 29.7727 9.87243 29.6281C9.91468 29.4841 10.1176 29.4163 10.3226 29.4813C10.5255 29.5437 10.6588 29.7101 10.6165 29.8557" fill="#282828"/>
<path d="M12.0865 29.9664C12.0916 30.1171 11.919 30.2421 11.7054 30.2445C11.4906 30.2496 11.3168 30.1277 11.3145 29.9794C11.3145 29.8272 11.4831 29.7034 11.698 29.6998C11.9116 29.6956 12.0865 29.8166 12.0865 29.9664" fill="#282828"/>
<path d="M13.4545 29.7299C13.4801 29.877 13.3316 30.028 13.1195 30.0679C12.9109 30.107 12.7178 30.0162 12.6914 29.8703C12.6655 29.7196 12.8166 29.5686 13.0249 29.5296C13.2373 29.4921 13.4274 29.5804 13.4545 29.7299" fill="#282828"/>
</svg>
